<svg width="520" height="362" viewBox="0 0 520 362" fill="none" xmlns="http://www.w3.org/2000/svg">
<rect width="520" height="362" rx="10" fill="white"/>
<line x1="55" y1="287.5" x2="473" y2="287.5" stroke="#D9D9D9"/>
<line x1="55.5" y1="38" x2="55.5" y2="288" stroke="#D9D9D9"/>
<path d="M401.85 302.422C401.85 301.778 401.894 301.148 401.981 300.533C402.074 299.917 402.228 299.346 402.443 298.819C402.658 298.287 402.951 297.82 403.322 297.42C403.693 297.02 404.154 296.707 404.706 296.482C405.263 296.253 405.929 296.138 406.706 296.138C406.925 296.138 407.162 296.15 407.416 296.175C407.67 296.194 407.88 296.229 408.046 296.277V297.325C407.865 297.261 407.658 297.215 407.423 297.186C407.194 297.156 406.962 297.142 406.728 297.142C405.819 297.142 405.104 297.339 404.582 297.735C404.064 298.13 403.69 298.667 403.461 299.346C403.231 300.02 403.1 300.779 403.065 301.624H403.146C403.297 301.38 403.49 301.16 403.725 300.965C403.959 300.765 404.242 300.606 404.574 300.489C404.911 300.372 405.302 300.313 405.746 300.313C406.371 300.313 406.916 300.44 407.379 300.694C407.848 300.948 408.209 301.316 408.463 301.8C408.722 302.283 408.852 302.869 408.852 303.558C408.852 304.295 408.715 304.932 408.441 305.469C408.168 306.006 407.777 306.421 407.27 306.714C406.767 307.002 406.166 307.146 405.468 307.146C404.945 307.146 404.464 307.046 404.025 306.846C403.585 306.646 403.202 306.348 402.875 305.953C402.553 305.557 402.301 305.066 402.121 304.48C401.94 303.89 401.85 303.204 401.85 302.422ZM405.453 306.121C406.117 306.121 406.649 305.909 407.05 305.484C407.45 305.059 407.65 304.417 407.65 303.558C407.65 302.854 407.472 302.298 407.116 301.888C406.759 301.478 406.222 301.272 405.504 301.272C405.016 301.272 404.591 301.375 404.23 301.58C403.869 301.78 403.588 302.034 403.388 302.342C403.188 302.649 403.087 302.962 403.087 303.279C403.087 303.602 403.134 303.929 403.227 304.261C403.324 304.593 403.471 304.9 403.666 305.184C403.861 305.467 404.108 305.694 404.406 305.865C404.704 306.036 405.053 306.121 405.453 306.121ZM417.399 301.631C417.399 302.5 417.333 303.277 417.201 303.96C417.069 304.644 416.862 305.223 416.579 305.696C416.295 306.17 415.929 306.531 415.48 306.78C415.031 307.024 414.491 307.146 413.861 307.146C413.065 307.146 412.406 306.929 411.884 306.495C411.366 306.06 410.978 305.433 410.719 304.612C410.465 303.787 410.338 302.793 410.338 301.631C410.338 300.489 410.453 299.507 410.683 298.687C410.917 297.862 411.293 297.229 411.811 296.79C412.328 296.346 413.012 296.124 413.861 296.124C414.667 296.124 415.331 296.343 415.854 296.783C416.376 297.217 416.764 297.847 417.018 298.672C417.272 299.493 417.399 300.479 417.399 301.631ZM411.562 301.631C411.562 302.627 411.637 303.458 411.789 304.122C411.94 304.786 412.184 305.284 412.521 305.616C412.863 305.943 413.31 306.106 413.861 306.106C414.413 306.106 414.857 305.943 415.194 305.616C415.536 305.289 415.783 304.793 415.934 304.129C416.09 303.465 416.168 302.632 416.168 301.631C416.168 300.65 416.093 299.83 415.941 299.17C415.79 298.506 415.546 298.008 415.209 297.676C414.872 297.339 414.423 297.171 413.861 297.171C413.3 297.171 412.851 297.339 412.514 297.676C412.177 298.008 411.933 298.506 411.781 299.17C411.635 299.83 411.562 300.65 411.562 301.631ZM425.983 301.631C425.983 302.5 425.917 303.277 425.785 303.96C425.653 304.644 425.446 305.223 425.163 305.696C424.879 306.17 424.513 306.531 424.064 306.78C423.615 307.024 423.075 307.146 422.445 307.146C421.649 307.146 420.99 306.929 420.468 306.495C419.95 306.06 419.562 305.433 419.303 304.612C419.049 303.787 418.922 302.793 418.922 301.631C418.922 300.489 419.037 299.507 419.267 298.687C419.501 297.862 419.877 297.229 420.395 296.79C420.912 296.346 421.596 296.124 422.445 296.124C423.251 296.124 423.915 296.343 424.438 296.783C424.96 297.217 425.348 297.847 425.602 298.672C425.856 299.493 425.983 300.479 425.983 301.631ZM420.146 301.631C420.146 302.627 420.221 303.458 420.373 304.122C420.524 304.786 420.768 305.284 421.105 305.616C421.447 305.943 421.894 306.106 422.445 306.106C422.997 306.106 423.441 305.943 423.778 305.616C424.12 305.289 424.367 304.793 424.518 304.129C424.674 303.465 424.752 302.632 424.752 301.631C424.752 300.65 424.677 299.83 424.525 299.17C424.374 298.506 424.13 298.008 423.793 297.676C423.456 297.339 423.007 297.171 422.445 297.171C421.884 297.171 421.435 297.339 421.098 297.676C420.761 298.008 420.517 298.506 420.365 299.17C420.219 299.83 420.146 300.65 420.146 301.631ZM430.546 307.872V306.333C429.984 306.324 429.447 306.275 428.935 306.187C428.427 306.099 428.012 305.984 427.689 305.843V304.656C428.026 304.812 428.458 304.949 428.986 305.066C429.513 305.184 430.033 305.247 430.546 305.257V302.034C429.901 301.854 429.367 301.648 428.942 301.419C428.522 301.185 428.207 300.899 427.997 300.562C427.787 300.225 427.682 299.817 427.682 299.339C427.682 298.841 427.799 298.416 428.034 298.064C428.273 297.708 428.607 297.43 429.037 297.229C429.467 297.029 429.97 296.915 430.546 296.885V295.618H431.439V296.871C431.962 296.885 432.438 296.944 432.868 297.046C433.297 297.144 433.695 297.271 434.062 297.427L433.681 298.445C433.349 298.313 432.99 298.201 432.604 298.108C432.218 298.016 431.83 297.952 431.439 297.918V301.119C432.094 301.309 432.641 301.512 433.08 301.727C433.524 301.941 433.859 302.208 434.083 302.525C434.308 302.842 434.42 303.252 434.42 303.755C434.42 304.468 434.159 305.044 433.637 305.484C433.114 305.918 432.382 306.182 431.439 306.275V307.872H430.546ZM431.439 305.191C432.04 305.132 432.487 304.988 432.78 304.759C433.078 304.524 433.227 304.217 433.227 303.836C433.227 303.562 433.168 303.338 433.051 303.162C432.938 302.986 432.753 302.835 432.494 302.708C432.235 302.576 431.884 302.452 431.439 302.334V305.191ZM430.546 300.811V297.947C430.18 297.972 429.872 298.04 429.623 298.152C429.374 298.265 429.186 298.411 429.059 298.592C428.937 298.772 428.876 298.987 428.876 299.236C428.876 299.524 428.93 299.766 429.037 299.961C429.149 300.152 429.328 300.315 429.572 300.452C429.821 300.584 430.146 300.704 430.546 300.811Z" fill="#D9D9D9"/>
<path d="M341.124 300.452C341.851 300.452 342.483 300.577 343.021 300.826C343.558 301.07 343.973 301.426 344.266 301.895C344.563 302.364 344.712 302.933 344.712 303.602C344.712 304.334 344.554 304.966 344.236 305.499C343.919 306.026 343.462 306.434 342.867 306.722C342.271 307.005 341.558 307.146 340.728 307.146C340.171 307.146 339.654 307.098 339.175 307C338.697 306.902 338.294 306.756 337.967 306.561V305.403C338.323 305.618 338.755 305.789 339.263 305.916C339.771 306.043 340.264 306.106 340.743 306.106C341.285 306.106 341.758 306.021 342.164 305.85C342.574 305.674 342.891 305.411 343.116 305.059C343.345 304.703 343.46 304.256 343.46 303.719C343.46 303.006 343.24 302.457 342.801 302.071C342.366 301.68 341.678 301.485 340.735 301.485C340.433 301.485 340.101 301.509 339.739 301.558C339.378 301.607 339.08 301.661 338.846 301.719L338.23 301.316L338.641 296.292H343.965V297.405H339.681L339.41 300.635C339.595 300.596 339.834 300.557 340.127 300.518C340.42 300.474 340.752 300.452 341.124 300.452ZM353.399 301.631C353.399 302.5 353.333 303.277 353.201 303.96C353.069 304.644 352.862 305.223 352.579 305.696C352.295 306.17 351.929 306.531 351.48 306.78C351.031 307.024 350.491 307.146 349.861 307.146C349.065 307.146 348.406 306.929 347.884 306.495C347.366 306.06 346.978 305.433 346.719 304.612C346.465 303.787 346.338 302.793 346.338 301.631C346.338 300.489 346.453 299.507 346.683 298.687C346.917 297.862 347.293 297.229 347.811 296.79C348.328 296.346 349.012 296.124 349.861 296.124C350.667 296.124 351.331 296.343 351.854 296.783C352.376 297.217 352.764 297.847 353.018 298.672C353.272 299.493 353.399 300.479 353.399 301.631ZM347.562 301.631C347.562 302.627 347.637 303.458 347.789 304.122C347.94 304.786 348.184 305.284 348.521 305.616C348.863 305.943 349.31 306.106 349.861 306.106C350.413 306.106 350.857 305.943 351.194 305.616C351.536 305.289 351.783 304.793 351.934 304.129C352.09 303.465 352.168 302.632 352.168 301.631C352.168 300.65 352.093 299.83 351.941 299.17C351.79 298.506 351.546 298.008 351.209 297.676C350.872 297.339 350.423 297.171 349.861 297.171C349.3 297.171 348.851 297.339 348.514 297.676C348.177 298.008 347.933 298.506 347.781 299.17C347.635 299.83 347.562 300.65 347.562 301.631ZM361.983 301.631C361.983 302.5 361.917 303.277 361.785 303.96C361.653 304.644 361.446 305.223 361.163 305.696C360.879 306.17 360.513 306.531 360.064 306.78C359.615 307.024 359.075 307.146 358.445 307.146C357.649 307.146 356.99 306.929 356.468 306.495C355.95 306.06 355.562 305.433 355.303 304.612C355.049 303.787 354.922 302.793 354.922 301.631C354.922 300.489 355.037 299.507 355.267 298.687C355.501 297.862 355.877 297.229 356.395 296.79C356.912 296.346 357.596 296.124 358.445 296.124C359.251 296.124 359.915 296.343 360.438 296.783C360.96 297.217 361.348 297.847 361.602 298.672C361.856 299.493 361.983 300.479 361.983 301.631ZM356.146 301.631C356.146 302.627 356.221 303.458 356.373 304.122C356.524 304.786 356.768 305.284 357.105 305.616C357.447 305.943 357.894 306.106 358.445 306.106C358.997 306.106 359.441 305.943 359.778 305.616C360.12 305.289 360.367 304.793 360.518 304.129C360.674 303.465 360.752 302.632 360.752 301.631C360.752 300.65 360.677 299.83 360.525 299.17C360.374 298.506 360.13 298.008 359.793 297.676C359.456 297.339 359.007 297.171 358.445 297.171C357.884 297.171 357.435 297.339 357.098 297.676C356.761 298.008 356.517 298.506 356.365 299.17C356.219 299.83 356.146 300.65 356.146 301.631ZM366.546 307.872V306.333C365.984 306.324 365.447 306.275 364.935 306.187C364.427 306.099 364.012 305.984 363.689 305.843V304.656C364.026 304.812 364.458 304.949 364.986 305.066C365.513 305.184 366.033 305.247 366.546 305.257V302.034C365.901 301.854 365.367 301.648 364.942 301.419C364.522 301.185 364.207 300.899 363.997 300.562C363.787 300.225 363.682 299.817 363.682 299.339C363.682 298.841 363.799 298.416 364.034 298.064C364.273 297.708 364.607 297.43 365.037 297.229C365.467 297.029 365.97 296.915 366.546 296.885V295.618H367.439V296.871C367.962 296.885 368.438 296.944 368.868 297.046C369.297 297.144 369.695 297.271 370.062 297.427L369.681 298.445C369.349 298.313 368.99 298.201 368.604 298.108C368.218 298.016 367.83 297.952 367.439 297.918V301.119C368.094 301.309 368.641 301.512 369.08 301.727C369.524 301.941 369.859 302.208 370.083 302.525C370.308 302.842 370.42 303.252 370.42 303.755C370.42 304.468 370.159 305.044 369.637 305.484C369.114 305.918 368.382 306.182 367.439 306.275V307.872H366.546ZM367.439 305.191C368.04 305.132 368.487 304.988 368.78 304.759C369.078 304.524 369.227 304.217 369.227 303.836C369.227 303.562 369.168 303.338 369.051 303.162C368.938 302.986 368.753 302.835 368.494 302.708C368.235 302.576 367.884 302.452 367.439 302.334V305.191ZM366.546 300.811V297.947C366.18 297.972 365.872 298.04 365.623 298.152C365.374 298.265 365.186 298.411 365.059 298.592C364.937 298.772 364.876 298.987 364.876 299.236C364.876 299.524 364.93 299.766 365.037 299.961C365.149 300.152 365.328 300.315 365.572 300.452C365.821 300.584 366.146 300.704 366.546 300.811Z" fill="#D9D9D9"/>
<path d="M281.291 304.517H279.687V307H278.5V304.517H273.322V303.492L278.42 296.233H279.687V303.418H281.291V304.517ZM278.5 303.418V299.917C278.5 299.649 278.503 299.407 278.508 299.192C278.513 298.973 278.52 298.77 278.53 298.584C278.54 298.394 278.547 298.213 278.552 298.042C278.562 297.872 278.569 297.703 278.574 297.537H278.515C278.422 297.732 278.315 297.94 278.193 298.16C278.076 298.375 277.956 298.567 277.834 298.738L274.531 303.418H278.5ZM289.399 301.631C289.399 302.5 289.333 303.277 289.201 303.96C289.069 304.644 288.862 305.223 288.579 305.696C288.295 306.17 287.929 306.531 287.48 306.78C287.031 307.024 286.491 307.146 285.861 307.146C285.065 307.146 284.406 306.929 283.884 306.495C283.366 306.06 282.978 305.433 282.719 304.612C282.465 303.787 282.338 302.793 282.338 301.631C282.338 300.489 282.453 299.507 282.683 298.687C282.917 297.862 283.293 297.229 283.811 296.79C284.328 296.346 285.012 296.124 285.861 296.124C286.667 296.124 287.331 296.343 287.854 296.783C288.376 297.217 288.764 297.847 289.018 298.672C289.272 299.493 289.399 300.479 289.399 301.631ZM283.562 301.631C283.562 302.627 283.637 303.458 283.789 304.122C283.94 304.786 284.184 305.284 284.521 305.616C284.863 305.943 285.31 306.106 285.861 306.106C286.413 306.106 286.857 305.943 287.194 305.616C287.536 305.289 287.783 304.793 287.934 304.129C288.09 303.465 288.168 302.632 288.168 301.631C288.168 300.65 288.093 299.83 287.941 299.17C287.79 298.506 287.546 298.008 287.209 297.676C286.872 297.339 286.423 297.171 285.861 297.171C285.3 297.171 284.851 297.339 284.514 297.676C284.177 298.008 283.933 298.506 283.781 299.17C283.635 299.83 283.562 300.65 283.562 301.631ZM297.983 301.631C297.983 302.5 297.917 303.277 297.785 303.96C297.653 304.644 297.446 305.223 297.163 305.696C296.879 306.17 296.513 306.531 296.064 306.78C295.615 307.024 295.075 307.146 294.445 307.146C293.649 307.146 292.99 306.929 292.468 306.495C291.95 306.06 291.562 305.433 291.303 304.612C291.049 303.787 290.922 302.793 290.922 301.631C290.922 300.489 291.037 299.507 291.267 298.687C291.501 297.862 291.877 297.229 292.395 296.79C292.912 296.346 293.596 296.124 294.445 296.124C295.251 296.124 295.915 296.343 296.438 296.783C296.96 297.217 297.348 297.847 297.602 298.672C297.856 299.493 297.983 300.479 297.983 301.631ZM292.146 301.631C292.146 302.627 292.221 303.458 292.373 304.122C292.524 304.786 292.768 305.284 293.105 305.616C293.447 305.943 293.894 306.106 294.445 306.106C294.997 306.106 295.441 305.943 295.778 305.616C296.12 305.289 296.367 304.793 296.518 304.129C296.674 303.465 296.752 302.632 296.752 301.631C296.752 300.65 296.677 299.83 296.525 299.17C296.374 298.506 296.13 298.008 295.793 297.676C295.456 297.339 295.007 297.171 294.445 297.171C293.884 297.171 293.435 297.339 293.098 297.676C292.761 298.008 292.517 298.506 292.365 299.17C292.219 299.83 292.146 300.65 292.146 301.631ZM302.546 307.872V306.333C301.984 306.324 301.447 306.275 300.935 306.187C300.427 306.099 300.012 305.984 299.689 305.843V304.656C300.026 304.812 300.458 304.949 300.986 305.066C301.513 305.184 302.033 305.247 302.546 305.257V302.034C301.901 301.854 301.367 301.648 300.942 301.419C300.522 301.185 300.207 300.899 299.997 300.562C299.787 300.225 299.682 299.817 299.682 299.339C299.682 298.841 299.799 298.416 300.034 298.064C300.273 297.708 300.607 297.43 301.037 297.229C301.467 297.029 301.97 296.915 302.546 296.885V295.618H303.439V296.871C303.962 296.885 304.438 296.944 304.868 297.046C305.297 297.144 305.695 297.271 306.062 297.427L305.681 298.445C305.349 298.313 304.99 298.201 304.604 298.108C304.218 298.016 303.83 297.952 303.439 297.918V301.119C304.094 301.309 304.641 301.512 305.08 301.727C305.524 301.941 305.859 302.208 306.083 302.525C306.308 302.842 306.42 303.252 306.42 303.755C306.42 304.468 306.159 305.044 305.637 305.484C305.114 305.918 304.382 306.182 303.439 306.275V307.872H302.546ZM303.439 305.191C304.04 305.132 304.487 304.988 304.78 304.759C305.078 304.524 305.227 304.217 305.227 303.836C305.227 303.562 305.168 303.338 305.051 303.162C304.938 302.986 304.753 302.835 304.494 302.708C304.235 302.576 303.884 302.452 303.439 302.334V305.191ZM302.546 300.811V297.947C302.18 297.972 301.872 298.04 301.623 298.152C301.374 298.265 301.186 298.411 301.059 298.592C300.937 298.772 300.876 298.987 300.876 299.236C300.876 299.524 300.93 299.766 301.037 299.961C301.149 300.152 301.328 300.315 301.572 300.452C301.821 300.584 302.146 300.704 302.546 300.811Z" fill="#D9D9D9"/>
<path d="M216.361 298.79C216.361 299.268 216.268 299.683 216.083 300.035C215.897 300.386 215.638 300.674 215.306 300.899C214.974 301.119 214.583 301.272 214.134 301.36V301.419C214.984 301.526 215.621 301.8 216.046 302.239C216.476 302.679 216.69 303.255 216.69 303.968C216.69 304.588 216.544 305.137 216.251 305.616C215.963 306.094 215.519 306.47 214.918 306.744C214.322 307.012 213.558 307.146 212.625 307.146C212.059 307.146 211.534 307.1 211.051 307.007C210.572 306.919 210.113 306.771 209.674 306.561V305.418C210.118 305.638 210.602 305.811 211.124 305.938C211.646 306.06 212.152 306.121 212.64 306.121C213.617 306.121 214.322 305.928 214.757 305.542C215.191 305.152 215.409 304.62 215.409 303.946C215.409 303.482 215.287 303.108 215.042 302.825C214.803 302.537 214.457 302.327 214.002 302.195C213.553 302.059 213.011 301.99 212.376 301.99H211.307V300.95H212.384C212.965 300.95 213.458 300.865 213.863 300.694C214.269 300.523 214.576 300.284 214.786 299.976C215.001 299.664 215.108 299.295 215.108 298.87C215.108 298.328 214.928 297.911 214.566 297.618C214.205 297.32 213.714 297.171 213.094 297.171C212.713 297.171 212.367 297.21 212.054 297.288C211.742 297.366 211.449 297.474 211.175 297.61C210.902 297.747 210.628 297.906 210.355 298.086L209.74 297.251C210.13 296.949 210.606 296.688 211.168 296.468C211.729 296.248 212.367 296.138 213.08 296.138C214.173 296.138 214.994 296.387 215.541 296.885C216.087 297.383 216.361 298.018 216.361 298.79ZM225.399 301.631C225.399 302.5 225.333 303.277 225.201 303.96C225.069 304.644 224.862 305.223 224.579 305.696C224.295 306.17 223.929 306.531 223.48 306.78C223.031 307.024 222.491 307.146 221.861 307.146C221.065 307.146 220.406 306.929 219.884 306.495C219.366 306.06 218.978 305.433 218.719 304.612C218.465 303.787 218.338 302.793 218.338 301.631C218.338 300.489 218.453 299.507 218.683 298.687C218.917 297.862 219.293 297.229 219.811 296.79C220.328 296.346 221.012 296.124 221.861 296.124C222.667 296.124 223.331 296.343 223.854 296.783C224.376 297.217 224.764 297.847 225.018 298.672C225.272 299.493 225.399 300.479 225.399 301.631ZM219.562 301.631C219.562 302.627 219.637 303.458 219.789 304.122C219.94 304.786 220.184 305.284 220.521 305.616C220.863 305.943 221.31 306.106 221.861 306.106C222.413 306.106 222.857 305.943 223.194 305.616C223.536 305.289 223.783 304.793 223.934 304.129C224.09 303.465 224.168 302.632 224.168 301.631C224.168 300.65 224.093 299.83 223.941 299.17C223.79 298.506 223.546 298.008 223.209 297.676C222.872 297.339 222.423 297.171 221.861 297.171C221.3 297.171 220.851 297.339 220.514 297.676C220.177 298.008 219.933 298.506 219.781 299.17C219.635 299.83 219.562 300.65 219.562 301.631ZM233.983 301.631C233.983 302.5 233.917 303.277 233.785 303.96C233.653 304.644 233.446 305.223 233.163 305.696C232.879 306.17 232.513 306.531 232.064 306.78C231.615 307.024 231.075 307.146 230.445 307.146C229.649 307.146 228.99 306.929 228.468 306.495C227.95 306.06 227.562 305.433 227.303 304.612C227.049 303.787 226.922 302.793 226.922 301.631C226.922 300.489 227.037 299.507 227.267 298.687C227.501 297.862 227.877 297.229 228.395 296.79C228.912 296.346 229.596 296.124 230.445 296.124C231.251 296.124 231.915 296.343 232.438 296.783C232.96 297.217 233.348 297.847 233.602 298.672C233.856 299.493 233.983 300.479 233.983 301.631ZM228.146 301.631C228.146 302.627 228.221 303.458 228.373 304.122C228.524 304.786 228.768 305.284 229.105 305.616C229.447 305.943 229.894 306.106 230.445 306.106C230.997 306.106 231.441 305.943 231.778 305.616C232.12 305.289 232.367 304.793 232.518 304.129C232.674 303.465 232.752 302.632 232.752 301.631C232.752 300.65 232.677 299.83 232.525 299.17C232.374 298.506 232.13 298.008 231.793 297.676C231.456 297.339 231.007 297.171 230.445 297.171C229.884 297.171 229.435 297.339 229.098 297.676C228.761 298.008 228.517 298.506 228.365 299.17C228.219 299.83 228.146 300.65 228.146 301.631ZM238.546 307.872V306.333C237.984 306.324 237.447 306.275 236.935 306.187C236.427 306.099 236.012 305.984 235.689 305.843V304.656C236.026 304.812 236.458 304.949 236.986 305.066C237.513 305.184 238.033 305.247 238.546 305.257V302.034C237.901 301.854 237.367 301.648 236.942 301.419C236.522 301.185 236.207 300.899 235.997 300.562C235.787 300.225 235.682 299.817 235.682 299.339C235.682 298.841 235.799 298.416 236.034 298.064C236.273 297.708 236.607 297.43 237.037 297.229C237.467 297.029 237.97 296.915 238.546 296.885V295.618H239.439V296.871C239.962 296.885 240.438 296.944 240.868 297.046C241.297 297.144 241.695 297.271 242.062 297.427L241.681 298.445C241.349 298.313 240.99 298.201 240.604 298.108C240.218 298.016 239.83 297.952 239.439 297.918V301.119C240.094 301.309 240.641 301.512 241.08 301.727C241.524 301.941 241.859 302.208 242.083 302.525C242.308 302.842 242.42 303.252 242.42 303.755C242.42 304.468 242.159 305.044 241.637 305.484C241.114 305.918 240.382 306.182 239.439 306.275V307.872H238.546ZM239.439 305.191C240.04 305.132 240.487 304.988 240.78 304.759C241.078 304.524 241.227 304.217 241.227 303.836C241.227 303.562 241.168 303.338 241.051 303.162C240.938 302.986 240.753 302.835 240.494 302.708C240.235 302.576 239.884 302.452 239.439 302.334V305.191ZM238.546 300.811V297.947C238.18 297.972 237.872 298.04 237.623 298.152C237.374 298.265 237.186 298.411 237.059 298.592C236.937 298.772 236.876 298.987 236.876 299.236C236.876 299.524 236.93 299.766 237.037 299.961C237.149 300.152 237.328 300.315 237.572 300.452C237.821 300.584 238.146 300.704 238.546 300.811Z" fill="#D9D9D9"/>
<path d="M152.756 307H145.74V305.982L148.604 303.074C149.136 302.537 149.583 302.059 149.944 301.639C150.31 301.219 150.588 300.806 150.779 300.401C150.969 299.991 151.064 299.542 151.064 299.053C151.064 298.448 150.884 297.986 150.522 297.669C150.166 297.347 149.695 297.186 149.109 297.186C148.596 297.186 148.142 297.273 147.747 297.449C147.351 297.625 146.946 297.874 146.531 298.196L145.879 297.376C146.162 297.137 146.47 296.924 146.802 296.739C147.139 296.553 147.498 296.407 147.878 296.299C148.264 296.192 148.674 296.138 149.109 296.138C149.768 296.138 150.337 296.253 150.815 296.482C151.294 296.712 151.663 297.039 151.921 297.464C152.185 297.889 152.317 298.394 152.317 298.98C152.317 299.546 152.205 300.074 151.98 300.562C151.755 301.045 151.44 301.526 151.035 302.005C150.63 302.479 150.156 302.981 149.614 303.514L147.285 305.835V305.887H152.756V307ZM161.399 301.631C161.399 302.5 161.333 303.277 161.201 303.96C161.069 304.644 160.862 305.223 160.579 305.696C160.295 306.17 159.929 306.531 159.48 306.78C159.031 307.024 158.491 307.146 157.861 307.146C157.065 307.146 156.406 306.929 155.884 306.495C155.366 306.06 154.978 305.433 154.719 304.612C154.465 303.787 154.338 302.793 154.338 301.631C154.338 300.489 154.453 299.507 154.683 298.687C154.917 297.862 155.293 297.229 155.811 296.79C156.328 296.346 157.012 296.124 157.861 296.124C158.667 296.124 159.331 296.343 159.854 296.783C160.376 297.217 160.764 297.847 161.018 298.672C161.272 299.493 161.399 300.479 161.399 301.631ZM155.562 301.631C155.562 302.627 155.637 303.458 155.789 304.122C155.94 304.786 156.184 305.284 156.521 305.616C156.863 305.943 157.31 306.106 157.861 306.106C158.413 306.106 158.857 305.943 159.194 305.616C159.536 305.289 159.783 304.793 159.934 304.129C160.09 303.465 160.168 302.632 160.168 301.631C160.168 300.65 160.093 299.83 159.941 299.17C159.79 298.506 159.546 298.008 159.209 297.676C158.872 297.339 158.423 297.171 157.861 297.171C157.3 297.171 156.851 297.339 156.514 297.676C156.177 298.008 155.933 298.506 155.781 299.17C155.635 299.83 155.562 300.65 155.562 301.631ZM169.983 301.631C169.983 302.5 169.917 303.277 169.785 303.96C169.653 304.644 169.446 305.223 169.163 305.696C168.879 306.17 168.513 306.531 168.064 306.78C167.615 307.024 167.075 307.146 166.445 307.146C165.649 307.146 164.99 306.929 164.468 306.495C163.95 306.06 163.562 305.433 163.303 304.612C163.049 303.787 162.922 302.793 162.922 301.631C162.922 300.489 163.037 299.507 163.267 298.687C163.501 297.862 163.877 297.229 164.395 296.79C164.912 296.346 165.596 296.124 166.445 296.124C167.251 296.124 167.915 296.343 168.438 296.783C168.96 297.217 169.348 297.847 169.602 298.672C169.856 299.493 169.983 300.479 169.983 301.631ZM164.146 301.631C164.146 302.627 164.221 303.458 164.373 304.122C164.524 304.786 164.768 305.284 165.105 305.616C165.447 305.943 165.894 306.106 166.445 306.106C166.997 306.106 167.441 305.943 167.778 305.616C168.12 305.289 168.367 304.793 168.518 304.129C168.674 303.465 168.752 302.632 168.752 301.631C168.752 300.65 168.677 299.83 168.525 299.17C168.374 298.506 168.13 298.008 167.793 297.676C167.456 297.339 167.007 297.171 166.445 297.171C165.884 297.171 165.435 297.339 165.098 297.676C164.761 298.008 164.517 298.506 164.365 299.17C164.219 299.83 164.146 300.65 164.146 301.631ZM174.546 307.872V306.333C173.984 306.324 173.447 306.275 172.935 306.187C172.427 306.099 172.012 305.984 171.689 305.843V304.656C172.026 304.812 172.458 304.949 172.986 305.066C173.513 305.184 174.033 305.247 174.546 305.257V302.034C173.901 301.854 173.367 301.648 172.942 301.419C172.522 301.185 172.207 300.899 171.997 300.562C171.787 300.225 171.682 299.817 171.682 299.339C171.682 298.841 171.799 298.416 172.034 298.064C172.273 297.708 172.607 297.43 173.037 297.229C173.467 297.029 173.97 296.915 174.546 296.885V295.618H175.439V296.871C175.962 296.885 176.438 296.944 176.868 297.046C177.297 297.144 177.695 297.271 178.062 297.427L177.681 298.445C177.349 298.313 176.99 298.201 176.604 298.108C176.218 298.016 175.83 297.952 175.439 297.918V301.119C176.094 301.309 176.641 301.512 177.08 301.727C177.524 301.941 177.859 302.208 178.083 302.525C178.308 302.842 178.42 303.252 178.42 303.755C178.42 304.468 178.159 305.044 177.637 305.484C177.114 305.918 176.382 306.182 175.439 306.275V307.872H174.546ZM175.439 305.191C176.04 305.132 176.487 304.988 176.78 304.759C177.078 304.524 177.227 304.217 177.227 303.836C177.227 303.562 177.168 303.338 177.051 303.162C176.938 302.986 176.753 302.835 176.494 302.708C176.235 302.576 175.884 302.452 175.439 302.334V305.191ZM174.546 300.811V297.947C174.18 297.972 173.872 298.04 173.623 298.152C173.374 298.265 173.186 298.411 173.059 298.592C172.937 298.772 172.876 298.987 172.876 299.236C172.876 299.524 172.93 299.766 173.037 299.961C173.149 300.152 173.328 300.315 173.572 300.452C173.821 300.584 174.146 300.704 174.546 300.811Z" fill="#D9D9D9"/>
<path d="M86.2661 307H85.0796V299.412C85.0796 299.124 85.0796 298.877 85.0796 298.672C85.0845 298.462 85.0894 298.272 85.0942 298.101C85.104 297.925 85.1162 297.747 85.1309 297.566C84.9795 297.723 84.8379 297.857 84.7061 297.969C84.5742 298.077 84.4106 298.211 84.2153 298.372L82.9922 299.354L82.355 298.526L85.2554 296.292H86.2661V307ZM97.3989 301.631C97.3989 302.5 97.333 303.277 97.2012 303.96C97.0693 304.644 96.8618 305.223 96.5786 305.696C96.2954 306.17 95.9292 306.531 95.48 306.78C95.0308 307.024 94.4912 307.146 93.8613 307.146C93.0654 307.146 92.4062 306.929 91.8838 306.495C91.3662 306.06 90.978 305.433 90.7192 304.612C90.4653 303.787 90.3384 302.793 90.3384 301.631C90.3384 300.489 90.4531 299.507 90.6826 298.687C90.917 297.862 91.293 297.229 91.8105 296.79C92.3281 296.346 93.0117 296.124 93.8613 296.124C94.667 296.124 95.3311 296.343 95.8535 296.783C96.376 297.217 96.7642 297.847 97.0181 298.672C97.272 299.493 97.3989 300.479 97.3989 301.631ZM91.5615 301.631C91.5615 302.627 91.6372 303.458 91.7886 304.122C91.9399 304.786 92.1841 305.284 92.521 305.616C92.8628 305.943 93.3096 306.106 93.8613 306.106C94.4131 306.106 94.8574 305.943 95.1943 305.616C95.5361 305.289 95.7827 304.793 95.9341 304.129C96.0903 303.465 96.1685 302.632 96.1685 301.631C96.1685 300.65 96.0928 299.83 95.9414 299.17C95.79 298.506 95.5459 298.008 95.209 297.676C94.8721 297.339 94.4229 297.171 93.8613 297.171C93.2998 297.171 92.8506 297.339 92.5137 297.676C92.1768 298.008 91.9326 298.506 91.7812 299.17C91.6348 299.83 91.5615 300.65 91.5615 301.631ZM105.983 301.631C105.983 302.5 105.917 303.277 105.785 303.96C105.653 304.644 105.446 305.223 105.163 305.696C104.879 306.17 104.513 306.531 104.064 306.78C103.615 307.024 103.075 307.146 102.445 307.146C101.649 307.146 100.99 306.929 100.468 306.495C99.9502 306.06 99.562 305.433 99.3032 304.612C99.0493 303.787 98.9224 302.793 98.9224 301.631C98.9224 300.489 99.0371 299.507 99.2666 298.687C99.501 297.862 99.877 297.229 100.395 296.79C100.912 296.346 101.596 296.124 102.445 296.124C103.251 296.124 103.915 296.343 104.438 296.783C104.96 297.217 105.348 297.847 105.602 298.672C105.856 299.493 105.983 300.479 105.983 301.631ZM100.146 301.631C100.146 302.627 100.221 303.458 100.373 304.122C100.524 304.786 100.768 305.284 101.105 305.616C101.447 305.943 101.894 306.106 102.445 306.106C102.997 306.106 103.441 305.943 103.778 305.616C104.12 305.289 104.367 304.793 104.518 304.129C104.674 303.465 104.752 302.632 104.752 301.631C104.752 300.65 104.677 299.83 104.525 299.17C104.374 298.506 104.13 298.008 103.793 297.676C103.456 297.339 103.007 297.171 102.445 297.171C101.884 297.171 101.435 297.339 101.098 297.676C100.761 298.008 100.517 298.506 100.365 299.17C100.219 299.83 100.146 300.65 100.146 301.631ZM110.546 307.872V306.333C109.984 306.324 109.447 306.275 108.935 306.187C108.427 306.099 108.012 305.984 107.689 305.843V304.656C108.026 304.812 108.458 304.949 108.986 305.066C109.513 305.184 110.033 305.247 110.546 305.257V302.034C109.901 301.854 109.367 301.648 108.942 301.419C108.522 301.185 108.207 300.899 107.997 300.562C107.787 300.225 107.682 299.817 107.682 299.339C107.682 298.841 107.799 298.416 108.034 298.064C108.273 297.708 108.607 297.43 109.037 297.229C109.467 297.029 109.97 296.915 110.546 296.885V295.618H111.439V296.871C111.962 296.885 112.438 296.944 112.868 297.046C113.297 297.144 113.695 297.271 114.062 297.427L113.681 298.445C113.349 298.313 112.99 298.201 112.604 298.108C112.218 298.016 111.83 297.952 111.439 297.918V301.119C112.094 301.309 112.641 301.512 113.08 301.727C113.524 301.941 113.859 302.208 114.083 302.525C114.308 302.842 114.42 303.252 114.42 303.755C114.42 304.468 114.159 305.044 113.637 305.484C113.114 305.918 112.382 306.182 111.439 306.275V307.872H110.546ZM111.439 305.191C112.04 305.132 112.487 304.988 112.78 304.759C113.078 304.524 113.227 304.217 113.227 303.836C113.227 303.562 113.168 303.338 113.051 303.162C112.938 302.986 112.753 302.835 112.494 302.708C112.235 302.576 111.884 302.452 111.439 302.334V305.191ZM110.546 300.811V297.947C110.18 297.972 109.872 298.04 109.623 298.152C109.374 298.265 109.186 298.411 109.059 298.592C108.937 298.772 108.876 298.987 108.876 299.236C108.876 299.524 108.93 299.766 109.037 299.961C109.149 300.152 109.328 300.315 109.572 300.452C109.821 300.584 110.146 300.704 110.546 300.811Z" fill="#D9D9D9"/>
<path d="M38.8149 301.631C38.8149 302.5 38.749 303.277 38.6172 303.96C38.4854 304.644 38.2778 305.223 37.9946 305.696C37.7114 306.17 37.3452 306.531 36.896 306.78C36.4468 307.024 35.9072 307.146 35.2773 307.146C34.4814 307.146 33.8223 306.929 33.2998 306.495C32.7822 306.06 32.394 305.433 32.1353 304.612C31.8813 303.787 31.7544 302.793 31.7544 301.631C31.7544 300.489 31.8691 299.507 32.0986 298.687C32.333 297.862 32.709 297.229 33.2266 296.79C33.7441 296.346 34.4277 296.124 35.2773 296.124C36.083 296.124 36.7471 296.343 37.2695 296.783C37.792 297.217 38.1802 297.847 38.4341 298.672C38.688 299.493 38.8149 300.479 38.8149 301.631ZM32.9775 301.631C32.9775 302.627 33.0532 303.458 33.2046 304.122C33.356 304.786 33.6001 305.284 33.937 305.616C34.2788 305.943 34.7256 306.106 35.2773 306.106C35.8291 306.106 36.2734 305.943 36.6104 305.616C36.9521 305.289 37.1987 304.793 37.3501 304.129C37.5063 303.465 37.5845 302.632 37.5845 301.631C37.5845 300.65 37.5088 299.83 37.3574 299.17C37.2061 298.506 36.9619 298.008 36.625 297.676C36.2881 297.339 35.8389 297.171 35.2773 297.171C34.7158 297.171 34.2666 297.339 33.9297 297.676C33.5928 298.008 33.3486 298.506 33.1973 299.17C33.0508 299.83 32.9775 300.65 32.9775 301.631ZM43.3779 307.872V306.333C42.8164 306.324 42.2793 306.275 41.7666 306.187C41.2588 306.099 40.8438 305.984 40.5215 305.843V304.656C40.8584 304.812 41.2905 304.949 41.8179 305.066C42.3452 305.184 42.8652 305.247 43.3779 305.257V302.034C42.7334 301.854 42.1987 301.648 41.7739 301.419C41.354 301.185 41.0391 300.899 40.8291 300.562C40.6191 300.225 40.5142 299.817 40.5142 299.339C40.5142 298.841 40.6313 298.416 40.8657 298.064C41.105 297.708 41.4395 297.43 41.8691 297.229C42.2988 297.029 42.8018 296.915 43.3779 296.885V295.618H44.2715V296.871C44.7939 296.885 45.27 296.944 45.6997 297.046C46.1294 297.144 46.5273 297.271 46.8936 297.427L46.5127 298.445C46.1807 298.313 45.8218 298.201 45.436 298.108C45.0503 298.016 44.6621 297.952 44.2715 297.918V301.119C44.9258 301.309 45.4727 301.512 45.9121 301.727C46.3564 301.941 46.6909 302.208 46.9155 302.525C47.1401 302.842 47.2524 303.252 47.2524 303.755C47.2524 304.468 46.9912 305.044 46.4688 305.484C45.9463 305.918 45.2139 306.182 44.2715 306.275V307.872H43.3779ZM44.2715 305.191C44.8721 305.132 45.3188 304.988 45.6118 304.759C45.9097 304.524 46.0586 304.217 46.0586 303.836C46.0586 303.562 46 303.338 45.8828 303.162C45.7705 302.986 45.585 302.835 45.3262 302.708C45.0674 302.576 44.7158 302.452 44.2715 302.334V305.191ZM43.3779 300.811V297.947C43.0117 297.972 42.7041 298.04 42.4551 298.152C42.2061 298.265 42.0181 298.411 41.8911 298.592C41.769 298.772 41.708 298.987 41.708 299.236C41.708 299.524 41.7617 299.766 41.8691 299.961C41.9814 300.152 42.1597 300.315 42.4038 300.452C42.6528 300.584 42.9775 300.704 43.3779 300.811Z" fill="#D9D9D9"/>
<path d="M30.7563 260H23.7397V258.982L26.6035 256.074C27.1357 255.537 27.5825 255.059 27.9438 254.639C28.3101 254.219 28.5884 253.806 28.7788 253.401C28.9692 252.991 29.0645 252.542 29.0645 252.053C29.0645 251.448 28.8838 250.986 28.5225 250.669C28.166 250.347 27.6948 250.186 27.1089 250.186C26.5962 250.186 26.1421 250.273 25.7466 250.449C25.3511 250.625 24.9458 250.874 24.5308 251.196L23.8789 250.376C24.1621 250.137 24.4697 249.924 24.8018 249.739C25.1387 249.553 25.4976 249.407 25.8784 249.299C26.2642 249.192 26.6743 249.138 27.1089 249.138C27.7681 249.138 28.3369 249.253 28.8154 249.482C29.2939 249.712 29.6626 250.039 29.9214 250.464C30.1851 250.889 30.3169 251.394 30.3169 251.98C30.3169 252.546 30.2046 253.074 29.98 253.562C29.7554 254.045 29.4404 254.526 29.0352 255.005C28.6299 255.479 28.1562 255.981 27.6143 256.514L25.2852 258.835V258.887H30.7563V260ZM32.6826 259.238C32.6826 258.896 32.7656 258.655 32.9316 258.513C33.0977 258.367 33.3003 258.293 33.5396 258.293C33.7886 258.293 33.9985 258.367 34.1694 258.513C34.3403 258.655 34.4258 258.896 34.4258 259.238C34.4258 259.575 34.3403 259.822 34.1694 259.978C33.9985 260.129 33.7886 260.205 33.5396 260.205C33.3003 260.205 33.0977 260.129 32.9316 259.978C32.7656 259.822 32.6826 259.575 32.6826 259.238ZM43.3394 254.631C43.3394 255.5 43.2734 256.277 43.1416 256.96C43.0098 257.644 42.8022 258.223 42.519 258.696C42.2358 259.17 41.8696 259.531 41.4204 259.78C40.9712 260.024 40.4316 260.146 39.8018 260.146C39.0059 260.146 38.3467 259.929 37.8242 259.495C37.3066 259.06 36.9185 258.433 36.6597 257.612C36.4058 256.787 36.2788 255.793 36.2788 254.631C36.2788 253.489 36.3936 252.507 36.623 251.687C36.8574 250.862 37.2334 250.229 37.751 249.79C38.2686 249.346 38.9521 249.124 39.8018 249.124C40.6074 249.124 41.2715 249.343 41.7939 249.783C42.3164 250.217 42.7046 250.847 42.9585 251.672C43.2124 252.493 43.3394 253.479 43.3394 254.631ZM37.502 254.631C37.502 255.627 37.5776 256.458 37.729 257.122C37.8804 257.786 38.1245 258.284 38.4614 258.616C38.8032 258.943 39.25 259.106 39.8018 259.106C40.3535 259.106 40.7979 258.943 41.1348 258.616C41.4766 258.289 41.7231 257.793 41.8745 257.129C42.0308 256.465 42.1089 255.632 42.1089 254.631C42.1089 253.65 42.0332 252.83 41.8818 252.17C41.7305 251.506 41.4863 251.008 41.1494 250.676C40.8125 250.339 40.3633 250.171 39.8018 250.171C39.2402 250.171 38.791 250.339 38.4541 250.676C38.1172 251.008 37.873 251.506 37.7217 252.17C37.5752 252.83 37.502 253.65 37.502 254.631ZM47.9023 260.872V259.333C47.3408 259.324 46.8037 259.275 46.291 259.187C45.7832 259.099 45.3682 258.984 45.0459 258.843V257.656C45.3828 257.812 45.8149 257.949 46.3423 258.066C46.8696 258.184 47.3896 258.247 47.9023 258.257V255.034C47.2578 254.854 46.7231 254.648 46.2983 254.419C45.8784 254.185 45.5635 253.899 45.3535 253.562C45.1436 253.225 45.0386 252.817 45.0386 252.339C45.0386 251.841 45.1558 251.416 45.3901 251.064C45.6294 250.708 45.9639 250.43 46.3936 250.229C46.8232 250.029 47.3262 249.915 47.9023 249.885V248.618H48.7959V249.871C49.3184 249.885 49.7944 249.944 50.2241 250.046C50.6538 250.144 51.0518 250.271 51.418 250.427L51.0371 251.445C50.7051 251.313 50.3462 251.201 49.9604 251.108C49.5747 251.016 49.1865 250.952 48.7959 250.918V254.119C49.4502 254.309 49.9971 254.512 50.4365 254.727C50.8809 254.941 51.2153 255.208 51.4399 255.525C51.6646 255.842 51.7769 256.252 51.7769 256.755C51.7769 257.468 51.5156 258.044 50.9932 258.484C50.4707 258.918 49.7383 259.182 48.7959 259.275V260.872H47.9023ZM48.7959 258.191C49.3965 258.132 49.8433 257.988 50.1362 257.759C50.4341 257.524 50.583 257.217 50.583 256.836C50.583 256.562 50.5244 256.338 50.4072 256.162C50.2949 255.986 50.1094 255.835 49.8506 255.708C49.5918 255.576 49.2402 255.452 48.7959 255.334V258.191ZM47.9023 253.811V250.947C47.5361 250.972 47.2285 251.04 46.9795 251.152C46.7305 251.265 46.5425 251.411 46.4155 251.592C46.2935 251.772 46.2324 251.987 46.2324 252.236C46.2324 252.524 46.2861 252.766 46.3936 252.961C46.5059 253.152 46.6841 253.315 46.9282 253.452C47.1772 253.584 47.502 253.704 47.9023 253.811Z" fill="#D9D9D9"/>
<path d="M31.291 210.517H29.687V213H28.5005V210.517H23.3223V209.492L28.4199 202.233H29.687V209.418H31.291V210.517ZM28.5005 209.418V205.917C28.5005 205.649 28.5029 205.407 28.5078 205.192C28.5127 204.973 28.52 204.77 28.5298 204.584C28.5396 204.394 28.5469 204.213 28.5518 204.042C28.5615 203.872 28.5688 203.703 28.5737 203.537H28.5151C28.4224 203.732 28.3149 203.94 28.1929 204.16C28.0757 204.375 27.9561 204.567 27.834 204.738L24.5308 209.418H28.5005ZM32.6826 212.238C32.6826 211.896 32.7656 211.655 32.9316 211.513C33.0977 211.367 33.3003 211.293 33.5396 211.293C33.7886 211.293 33.9985 211.367 34.1694 211.513C34.3403 211.655 34.4258 211.896 34.4258 212.238C34.4258 212.575 34.3403 212.822 34.1694 212.978C33.9985 213.129 33.7886 213.205 33.5396 213.205C33.3003 213.205 33.0977 213.129 32.9316 212.978C32.7656 212.822 32.6826 212.575 32.6826 212.238ZM43.3394 207.631C43.3394 208.5 43.2734 209.277 43.1416 209.96C43.0098 210.644 42.8022 211.223 42.519 211.696C42.2358 212.17 41.8696 212.531 41.4204 212.78C40.9712 213.024 40.4316 213.146 39.8018 213.146C39.0059 213.146 38.3467 212.929 37.8242 212.495C37.3066 212.06 36.9185 211.433 36.6597 210.612C36.4058 209.787 36.2788 208.793 36.2788 207.631C36.2788 206.489 36.3936 205.507 36.623 204.687C36.8574 203.862 37.2334 203.229 37.751 202.79C38.2686 202.346 38.9521 202.124 39.8018 202.124C40.6074 202.124 41.2715 202.343 41.7939 202.783C42.3164 203.217 42.7046 203.847 42.9585 204.672C43.2124 205.493 43.3394 206.479 43.3394 207.631ZM37.502 207.631C37.502 208.627 37.5776 209.458 37.729 210.122C37.8804 210.786 38.1245 211.284 38.4614 211.616C38.8032 211.943 39.25 212.106 39.8018 212.106C40.3535 212.106 40.7979 211.943 41.1348 211.616C41.4766 211.289 41.7231 210.793 41.8745 210.129C42.0308 209.465 42.1089 208.632 42.1089 207.631C42.1089 206.65 42.0332 205.83 41.8818 205.17C41.7305 204.506 41.4863 204.008 41.1494 203.676C40.8125 203.339 40.3633 203.171 39.8018 203.171C39.2402 203.171 38.791 203.339 38.4541 203.676C38.1172 204.008 37.873 204.506 37.7217 205.17C37.5752 205.83 37.502 206.65 37.502 207.631ZM47.9023 213.872V212.333C47.3408 212.324 46.8037 212.275 46.291 212.187C45.7832 212.099 45.3682 211.984 45.0459 211.843V210.656C45.3828 210.812 45.8149 210.949 46.3423 211.066C46.8696 211.184 47.3896 211.247 47.9023 211.257V208.034C47.2578 207.854 46.7231 207.648 46.2983 207.419C45.8784 207.185 45.5635 206.899 45.3535 206.562C45.1436 206.225 45.0386 205.817 45.0386 205.339C45.0386 204.841 45.1558 204.416 45.3901 204.064C45.6294 203.708 45.9639 203.43 46.3936 203.229C46.8232 203.029 47.3262 202.915 47.9023 202.885V201.618H48.7959V202.871C49.3184 202.885 49.7944 202.944 50.2241 203.046C50.6538 203.144 51.0518 203.271 51.418 203.427L51.0371 204.445C50.7051 204.313 50.3462 204.201 49.9604 204.108C49.5747 204.016 49.1865 203.952 48.7959 203.918V207.119C49.4502 207.309 49.9971 207.512 50.4365 207.727C50.8809 207.941 51.2153 208.208 51.4399 208.525C51.6646 208.842 51.7769 209.252 51.7769 209.755C51.7769 210.468 51.5156 211.044 50.9932 211.484C50.4707 211.918 49.7383 212.182 48.7959 212.275V213.872H47.9023ZM48.7959 211.191C49.3965 211.132 49.8433 210.988 50.1362 210.759C50.4341 210.524 50.583 210.217 50.583 209.836C50.583 209.562 50.5244 209.338 50.4072 209.162C50.2949 208.986 50.1094 208.835 49.8506 208.708C49.5918 208.576 49.2402 208.452 48.7959 208.334V211.191ZM47.9023 206.811V203.947C47.5361 203.972 47.2285 204.04 46.9795 204.152C46.7305 204.265 46.5425 204.411 46.4155 204.592C46.2935 204.772 46.2324 204.987 46.2324 205.236C46.2324 205.524 46.2861 205.766 46.3936 205.961C46.5059 206.152 46.6841 206.315 46.9282 206.452C47.1772 206.584 47.502 206.704 47.9023 206.811Z" fill="#D9D9D9"/>
<path d="M23.8496 161.422C23.8496 160.778 23.8936 160.148 23.9814 159.533C24.0742 158.917 24.228 158.346 24.4429 157.819C24.6577 157.287 24.9507 156.82 25.3218 156.42C25.6929 156.02 26.1543 155.707 26.7061 155.482C27.2627 155.253 27.9292 155.138 28.7056 155.138C28.9253 155.138 29.1621 155.15 29.416 155.175C29.6699 155.194 29.8799 155.229 30.0459 155.277V156.325C29.8652 156.261 29.6577 156.215 29.4233 156.186C29.1938 156.156 28.9619 156.142 28.7275 156.142C27.8193 156.142 27.104 156.339 26.5815 156.735C26.064 157.13 25.6904 157.667 25.4609 158.346C25.2314 159.02 25.0996 159.779 25.0654 160.624H25.146C25.2974 160.38 25.4902 160.16 25.7246 159.965C25.959 159.765 26.2422 159.606 26.5742 159.489C26.9111 159.372 27.3018 159.313 27.7461 159.313C28.3711 159.313 28.9155 159.44 29.3794 159.694C29.8481 159.948 30.2095 160.316 30.4634 160.8C30.7222 161.283 30.8516 161.869 30.8516 162.558C30.8516 163.295 30.7148 163.932 30.4414 164.469C30.168 165.006 29.7773 165.421 29.2695 165.714C28.7666 166.002 28.166 166.146 27.4678 166.146C26.9453 166.146 26.4644 166.046 26.0249 165.846C25.5854 165.646 25.2021 165.348 24.875 164.953C24.5527 164.557 24.3013 164.066 24.1206 163.48C23.9399 162.89 23.8496 162.204 23.8496 161.422ZM27.4531 165.121C28.1172 165.121 28.6494 164.909 29.0498 164.484C29.4502 164.059 29.6504 163.417 29.6504 162.558C29.6504 161.854 29.4722 161.298 29.1157 160.888C28.7593 160.478 28.2222 160.272 27.5044 160.272C27.0161 160.272 26.5913 160.375 26.23 160.58C25.8687 160.78 25.5879 161.034 25.3877 161.342C25.1875 161.649 25.0874 161.962 25.0874 162.279C25.0874 162.602 25.1338 162.929 25.2266 163.261C25.3242 163.593 25.4707 163.9 25.666 164.184C25.8613 164.467 26.1079 164.694 26.4058 164.865C26.7036 165.036 27.0527 165.121 27.4531 165.121ZM32.6826 165.238C32.6826 164.896 32.7656 164.655 32.9316 164.513C33.0977 164.367 33.3003 164.293 33.5396 164.293C33.7886 164.293 33.9985 164.367 34.1694 164.513C34.3403 164.655 34.4258 164.896 34.4258 165.238C34.4258 165.575 34.3403 165.822 34.1694 165.978C33.9985 166.129 33.7886 166.205 33.5396 166.205C33.3003 166.205 33.0977 166.129 32.9316 165.978C32.7656 165.822 32.6826 165.575 32.6826 165.238ZM43.3394 160.631C43.3394 161.5 43.2734 162.277 43.1416 162.96C43.0098 163.644 42.8022 164.223 42.519 164.696C42.2358 165.17 41.8696 165.531 41.4204 165.78C40.9712 166.024 40.4316 166.146 39.8018 166.146C39.0059 166.146 38.3467 165.929 37.8242 165.495C37.3066 165.06 36.9185 164.433 36.6597 163.612C36.4058 162.787 36.2788 161.793 36.2788 160.631C36.2788 159.489 36.3936 158.507 36.623 157.687C36.8574 156.862 37.2334 156.229 37.751 155.79C38.2686 155.346 38.9521 155.124 39.8018 155.124C40.6074 155.124 41.2715 155.343 41.7939 155.783C42.3164 156.217 42.7046 156.847 42.9585 157.672C43.2124 158.493 43.3394 159.479 43.3394 160.631ZM37.502 160.631C37.502 161.627 37.5776 162.458 37.729 163.122C37.8804 163.786 38.1245 164.284 38.4614 164.616C38.8032 164.943 39.25 165.106 39.8018 165.106C40.3535 165.106 40.7979 164.943 41.1348 164.616C41.4766 164.289 41.7231 163.793 41.8745 163.129C42.0308 162.465 42.1089 161.632 42.1089 160.631C42.1089 159.65 42.0332 158.83 41.8818 158.17C41.7305 157.506 41.4863 157.008 41.1494 156.676C40.8125 156.339 40.3633 156.171 39.8018 156.171C39.2402 156.171 38.791 156.339 38.4541 156.676C38.1172 157.008 37.873 157.506 37.7217 158.17C37.5752 158.83 37.502 159.65 37.502 160.631ZM47.9023 166.872V165.333C47.3408 165.324 46.8037 165.275 46.291 165.187C45.7832 165.099 45.3682 164.984 45.0459 164.843V163.656C45.3828 163.812 45.8149 163.949 46.3423 164.066C46.8696 164.184 47.3896 164.247 47.9023 164.257V161.034C47.2578 160.854 46.7231 160.648 46.2983 160.419C45.8784 160.185 45.5635 159.899 45.3535 159.562C45.1436 159.225 45.0386 158.817 45.0386 158.339C45.0386 157.841 45.1558 157.416 45.3901 157.064C45.6294 156.708 45.9639 156.43 46.3936 156.229C46.8232 156.029 47.3262 155.915 47.9023 155.885V154.618H48.7959V155.871C49.3184 155.885 49.7944 155.944 50.2241 156.046C50.6538 156.144 51.0518 156.271 51.418 156.427L51.0371 157.445C50.7051 157.313 50.3462 157.201 49.9604 157.108C49.5747 157.016 49.1865 156.952 48.7959 156.918V160.119C49.4502 160.309 49.9971 160.512 50.4365 160.727C50.8809 160.941 51.2153 161.208 51.4399 161.525C51.6646 161.842 51.7769 162.252 51.7769 162.755C51.7769 163.468 51.5156 164.044 50.9932 164.484C50.4707 164.918 49.7383 165.182 48.7959 165.275V166.872H47.9023ZM48.7959 164.191C49.3965 164.132 49.8433 163.988 50.1362 163.759C50.4341 163.524 50.583 163.217 50.583 162.836C50.583 162.562 50.5244 162.338 50.4072 162.162C50.2949 161.986 50.1094 161.835 49.8506 161.708C49.5918 161.576 49.2402 161.452 48.7959 161.334V164.191ZM47.9023 159.811V156.947C47.5361 156.972 47.2285 157.04 46.9795 157.152C46.7305 157.265 46.5425 157.411 46.4155 157.592C46.2935 157.772 46.2324 157.987 46.2324 158.236C46.2324 158.524 46.2861 158.766 46.3936 158.961C46.5059 159.152 46.6841 159.315 46.9282 159.452C47.1772 159.584 47.502 159.704 47.9023 159.811Z" fill="#D9D9D9"/>
<path d="M27.2773 108.138C27.8975 108.138 28.4468 108.236 28.9253 108.431C29.4038 108.626 29.7773 108.915 30.0459 109.295C30.3193 109.671 30.4561 110.135 30.4561 110.687C30.4561 111.122 30.3608 111.502 30.1704 111.83C29.9849 112.152 29.7334 112.435 29.416 112.679C29.0986 112.918 28.7471 113.133 28.3613 113.324C28.8203 113.534 29.2329 113.771 29.5991 114.034C29.9702 114.298 30.2632 114.608 30.478 114.964C30.6929 115.321 30.8003 115.743 30.8003 116.231C30.8003 116.832 30.6538 117.352 30.3608 117.792C30.0728 118.226 29.6675 118.561 29.145 118.795C28.6226 119.029 28.0098 119.146 27.3066 119.146C26.5498 119.146 25.9053 119.034 25.373 118.81C24.8457 118.58 24.4429 118.253 24.1646 117.828C23.8911 117.398 23.7544 116.883 23.7544 116.283C23.7544 115.79 23.8594 115.362 24.0693 115.001C24.2793 114.635 24.5576 114.32 24.9043 114.056C25.251 113.792 25.6294 113.57 26.0396 113.39C25.6831 113.194 25.356 112.972 25.0581 112.723C24.7651 112.474 24.5308 112.184 24.355 111.852C24.1841 111.515 24.0986 111.124 24.0986 110.68C24.0986 110.138 24.2354 109.679 24.5088 109.303C24.7871 108.922 25.1655 108.634 25.644 108.438C26.1274 108.238 26.6719 108.138 27.2773 108.138ZM24.9482 116.29C24.9482 116.837 25.1411 117.289 25.5269 117.645C25.9126 117.997 26.4961 118.172 27.2773 118.172C28.0195 118.172 28.5933 117.997 28.9985 117.645C29.4038 117.289 29.6064 116.822 29.6064 116.246C29.6064 115.89 29.5137 115.577 29.3281 115.309C29.1426 115.035 28.8789 114.791 28.5371 114.576C28.1953 114.361 27.7925 114.166 27.3286 113.99L27.0649 113.895C26.6157 114.081 26.2324 114.288 25.915 114.518C25.6025 114.742 25.3633 114.999 25.1973 115.287C25.0312 115.575 24.9482 115.909 24.9482 116.29ZM27.2627 109.134C26.6865 109.134 26.2153 109.273 25.8491 109.552C25.4829 109.825 25.2998 110.221 25.2998 110.738C25.2998 111.109 25.3877 111.424 25.5635 111.683C25.7441 111.937 25.9883 112.157 26.2959 112.342C26.6035 112.523 26.9478 112.691 27.3286 112.848C27.6997 112.691 28.0293 112.521 28.3174 112.335C28.6055 112.145 28.8325 111.92 28.9985 111.661C29.1646 111.402 29.2476 111.092 29.2476 110.731C29.2476 110.213 29.0645 109.818 28.6982 109.544C28.3369 109.271 27.8584 109.134 27.2627 109.134ZM32.6826 118.238C32.6826 117.896 32.7656 117.655 32.9316 117.513C33.0977 117.367 33.3003 117.293 33.5396 117.293C33.7886 117.293 33.9985 117.367 34.1694 117.513C34.3403 117.655 34.4258 117.896 34.4258 118.238C34.4258 118.575 34.3403 118.822 34.1694 118.978C33.9985 119.129 33.7886 119.205 33.5396 119.205C33.3003 119.205 33.0977 119.129 32.9316 118.978C32.7656 118.822 32.6826 118.575 32.6826 118.238ZM43.3394 113.631C43.3394 114.5 43.2734 115.277 43.1416 115.96C43.0098 116.644 42.8022 117.223 42.519 117.696C42.2358 118.17 41.8696 118.531 41.4204 118.78C40.9712 119.024 40.4316 119.146 39.8018 119.146C39.0059 119.146 38.3467 118.929 37.8242 118.495C37.3066 118.06 36.9185 117.433 36.6597 116.612C36.4058 115.787 36.2788 114.793 36.2788 113.631C36.2788 112.489 36.3936 111.507 36.623 110.687C36.8574 109.862 37.2334 109.229 37.751 108.79C38.2686 108.346 38.9521 108.124 39.8018 108.124C40.6074 108.124 41.2715 108.343 41.7939 108.783C42.3164 109.217 42.7046 109.847 42.9585 110.672C43.2124 111.493 43.3394 112.479 43.3394 113.631ZM37.502 113.631C37.502 114.627 37.5776 115.458 37.729 116.122C37.8804 116.786 38.1245 117.284 38.4614 117.616C38.8032 117.943 39.25 118.106 39.8018 118.106C40.3535 118.106 40.7979 117.943 41.1348 117.616C41.4766 117.289 41.7231 116.793 41.8745 116.129C42.0308 115.465 42.1089 114.632 42.1089 113.631C42.1089 112.65 42.0332 111.83 41.8818 111.17C41.7305 110.506 41.4863 110.008 41.1494 109.676C40.8125 109.339 40.3633 109.171 39.8018 109.171C39.2402 109.171 38.791 109.339 38.4541 109.676C38.1172 110.008 37.873 110.506 37.7217 111.17C37.5752 111.83 37.502 112.65 37.502 113.631ZM47.9023 119.872V118.333C47.3408 118.324 46.8037 118.275 46.291 118.187C45.7832 118.099 45.3682 117.984 45.0459 117.843V116.656C45.3828 116.812 45.8149 116.949 46.3423 117.066C46.8696 117.184 47.3896 117.247 47.9023 117.257V114.034C47.2578 113.854 46.7231 113.648 46.2983 113.419C45.8784 113.185 45.5635 112.899 45.3535 112.562C45.1436 112.225 45.0386 111.817 45.0386 111.339C45.0386 110.841 45.1558 110.416 45.3901 110.064C45.6294 109.708 45.9639 109.43 46.3936 109.229C46.8232 109.029 47.3262 108.915 47.9023 108.885V107.618H48.7959V108.871C49.3184 108.885 49.7944 108.944 50.2241 109.046C50.6538 109.144 51.0518 109.271 51.418 109.427L51.0371 110.445C50.7051 110.313 50.3462 110.201 49.9604 110.108C49.5747 110.016 49.1865 109.952 48.7959 109.918V113.119C49.4502 113.309 49.9971 113.512 50.4365 113.727C50.8809 113.941 51.2153 114.208 51.4399 114.525C51.6646 114.842 51.7769 115.252 51.7769 115.755C51.7769 116.468 51.5156 117.044 50.9932 117.484C50.4707 117.918 49.7383 118.182 48.7959 118.275V119.872H47.9023ZM48.7959 117.191C49.3965 117.132 49.8433 116.988 50.1362 116.759C50.4341 116.524 50.583 116.217 50.583 115.836C50.583 115.562 50.5244 115.338 50.4072 115.162C50.2949 114.986 50.1094 114.835 49.8506 114.708C49.5918 114.576 49.2402 114.452 48.7959 114.334V117.191ZM47.9023 112.811V109.947C47.5361 109.972 47.2285 110.04 46.9795 110.152C46.7305 110.265 46.5425 110.411 46.4155 110.592C46.2935 110.772 46.2324 110.987 46.2324 111.236C46.2324 111.524 46.2861 111.766 46.3936 111.961C46.5059 112.152 46.6841 112.315 46.9282 112.452C47.1772 112.584 47.502 112.704 47.9023 112.811Z" fill="#D9D9D9"/>
<path d="M18.2661 72H17.0796V64.4121C17.0796 64.124 17.0796 63.8774 17.0796 63.6724C17.0845 63.4624 17.0894 63.272 17.0942 63.1011C17.104 62.9253 17.1162 62.7471 17.1309 62.5664C16.9795 62.7227 16.8379 62.8569 16.7061 62.9692C16.5742 63.0767 16.4106 63.2109 16.2153 63.3721L14.9922 64.3535L14.355 63.5259L17.2554 61.292H18.2661V72ZM29.3989 66.6313C29.3989 67.5005 29.333 68.2769 29.2012 68.9604C29.0693 69.644 28.8618 70.2227 28.5786 70.6963C28.2954 71.1699 27.9292 71.5312 27.48 71.7803C27.0308 72.0244 26.4912 72.1465 25.8613 72.1465C25.0654 72.1465 24.4062 71.9292 23.8838 71.4946C23.3662 71.0601 22.978 70.4326 22.7192 69.6123C22.4653 68.7871 22.3384 67.7935 22.3384 66.6313C22.3384 65.4888 22.4531 64.5073 22.6826 63.687C22.917 62.8618 23.293 62.2295 23.8105 61.79C24.3281 61.3457 25.0117 61.1235 25.8613 61.1235C26.667 61.1235 27.3311 61.3433 27.8535 61.7827C28.376 62.2173 28.7642 62.8472 29.0181 63.6724C29.272 64.4927 29.3989 65.479 29.3989 66.6313ZM23.5615 66.6313C23.5615 67.6274 23.6372 68.4575 23.7886 69.1216C23.9399 69.7856 24.1841 70.2837 24.521 70.6157C24.8628 70.9429 25.3096 71.1064 25.8613 71.1064C26.4131 71.1064 26.8574 70.9429 27.1943 70.6157C27.5361 70.2886 27.7827 69.793 27.9341 69.1289C28.0903 68.4648 28.1685 67.6323 28.1685 66.6313C28.1685 65.6499 28.0928 64.8296 27.9414 64.1704C27.79 63.5063 27.5459 63.0083 27.209 62.6763C26.8721 62.3394 26.4229 62.1709 25.8613 62.1709C25.2998 62.1709 24.8506 62.3394 24.5137 62.6763C24.1768 63.0083 23.9326 63.5063 23.7812 64.1704C23.6348 64.8296 23.5615 65.6499 23.5615 66.6313ZM31.2666 71.2383C31.2666 70.8965 31.3496 70.6548 31.5156 70.5132C31.6816 70.3667 31.8843 70.2935 32.1235 70.2935C32.3726 70.2935 32.5825 70.3667 32.7534 70.5132C32.9243 70.6548 33.0098 70.8965 33.0098 71.2383C33.0098 71.5752 32.9243 71.8218 32.7534 71.978C32.5825 72.1294 32.3726 72.2051 32.1235 72.2051C31.8843 72.2051 31.6816 72.1294 31.5156 71.978C31.3496 71.8218 31.2666 71.5752 31.2666 71.2383ZM41.9233 66.6313C41.9233 67.5005 41.8574 68.2769 41.7256 68.9604C41.5938 69.644 41.3862 70.2227 41.103 70.6963C40.8198 71.1699 40.4536 71.5312 40.0044 71.7803C39.5552 72.0244 39.0156 72.1465 38.3857 72.1465C37.5898 72.1465 36.9307 71.9292 36.4082 71.4946C35.8906 71.0601 35.5024 70.4326 35.2437 69.6123C34.9897 68.7871 34.8628 67.7935 34.8628 66.6313C34.8628 65.4888 34.9775 64.5073 35.207 63.687C35.4414 62.8618 35.8174 62.2295 36.335 61.79C36.8525 61.3457 37.5361 61.1235 38.3857 61.1235C39.1914 61.1235 39.8555 61.3433 40.3779 61.7827C40.9004 62.2173 41.2886 62.8472 41.5425 63.6724C41.7964 64.4927 41.9233 65.479 41.9233 66.6313ZM36.0859 66.6313C36.0859 67.6274 36.1616 68.4575 36.313 69.1216C36.4644 69.7856 36.7085 70.2837 37.0454 70.6157C37.3872 70.9429 37.834 71.1064 38.3857 71.1064C38.9375 71.1064 39.3818 70.9429 39.7188 70.6157C40.0605 70.2886 40.3071 69.793 40.4585 69.1289C40.6147 68.4648 40.6929 67.6323 40.6929 66.6313C40.6929 65.6499 40.6172 64.8296 40.4658 64.1704C40.3145 63.5063 40.0703 63.0083 39.7334 62.6763C39.3965 62.3394 38.9473 62.1709 38.3857 62.1709C37.8242 62.1709 37.375 62.3394 37.0381 62.6763C36.7012 63.0083 36.457 63.5063 36.3057 64.1704C36.1592 64.8296 36.0859 65.6499 36.0859 66.6313ZM46.4863 72.8716V71.3335C45.9248 71.3237 45.3877 71.2749 44.875 71.187C44.3672 71.0991 43.9521 70.9844 43.6299 70.8428V69.6562C43.9668 69.8125 44.3989 69.9492 44.9263 70.0664C45.4536 70.1836 45.9736 70.2471 46.4863 70.2568V67.0342C45.8418 66.8535 45.3071 66.6484 44.8823 66.4189C44.4624 66.1846 44.1475 65.8989 43.9375 65.562C43.7275 65.2251 43.6226 64.8174 43.6226 64.3389C43.6226 63.8408 43.7397 63.416 43.9741 63.0645C44.2134 62.708 44.5479 62.4297 44.9775 62.2295C45.4072 62.0293 45.9102 61.9146 46.4863 61.8853V60.6182H47.3799V61.8706C47.9023 61.8853 48.3784 61.9438 48.8081 62.0464C49.2378 62.144 49.6357 62.271 50.002 62.4272L49.6211 63.4453C49.2891 63.3135 48.9302 63.2012 48.5444 63.1084C48.1587 63.0156 47.7705 62.9521 47.3799 62.918V66.1187C48.0342 66.3091 48.5811 66.5117 49.0205 66.7266C49.4648 66.9414 49.7993 67.2075 50.0239 67.5249C50.2485 67.8423 50.3608 68.2524 50.3608 68.7554C50.3608 69.4683 50.0996 70.0444 49.5771 70.4839C49.0547 70.9185 48.3223 71.1821 47.3799 71.2749V72.8716H46.4863ZM47.3799 70.1909C47.9805 70.1323 48.4272 69.9883 48.7202 69.7588C49.0181 69.5244 49.167 69.2168 49.167 68.8359C49.167 68.5625 49.1084 68.3379 48.9912 68.1621C48.8789 67.9863 48.6934 67.835 48.4346 67.708C48.1758 67.5762 47.8242 67.4517 47.3799 67.3345V70.1909ZM46.4863 65.811V62.9473C46.1201 62.9717 45.8125 63.04 45.5635 63.1523C45.3145 63.2646 45.1265 63.4111 44.9995 63.5918C44.8774 63.7725 44.8164 63.9873 44.8164 64.2363C44.8164 64.5244 44.8701 64.7661 44.9775 64.9614C45.0898 65.1519 45.2681 65.3154 45.5122 65.4521C45.7612 65.584 46.0859 65.7036 46.4863 65.811Z" fill="#D9D9D9"/>
<circle cx="338" cy="337" r="7" fill="#FFF2D0"/>
<path d="M353.028 337.26H355.523V340.722C355.149 340.849 354.763 340.943 354.366 341.005C353.972 341.067 353.531 341.098 353.043 341.098C352.301 341.098 351.674 340.95 351.163 340.653C350.655 340.357 350.27 339.936 350.006 339.389C349.742 338.839 349.61 338.186 349.61 337.431C349.61 336.692 349.755 336.047 350.045 335.497C350.338 334.947 350.759 334.521 351.31 334.218C351.863 333.912 352.527 333.759 353.302 333.759C353.699 333.759 354.075 333.796 354.43 333.871C354.788 333.943 355.12 334.045 355.426 334.179L355.108 334.901C354.845 334.787 354.553 334.69 354.234 334.608C353.919 334.527 353.591 334.486 353.253 334.486C352.67 334.486 352.171 334.607 351.754 334.848C351.34 335.089 351.023 335.429 350.802 335.868C350.584 336.308 350.475 336.828 350.475 337.431C350.475 338.026 350.571 338.546 350.763 338.988C350.955 339.428 351.254 339.77 351.661 340.014C352.068 340.258 352.592 340.38 353.233 340.38C353.556 340.38 353.832 340.362 354.063 340.326C354.295 340.287 354.505 340.242 354.693 340.189V338.002H353.028V337.26ZM359.19 335.551C359.646 335.551 360.037 335.652 360.362 335.854C360.688 336.055 360.937 336.339 361.109 336.703C361.282 337.064 361.368 337.488 361.368 337.973V338.476H357.672C357.682 339.104 357.838 339.582 358.141 339.911C358.443 340.24 358.87 340.404 359.42 340.404C359.758 340.404 360.058 340.373 360.318 340.312C360.579 340.25 360.849 340.159 361.129 340.038V340.751C360.859 340.871 360.59 340.959 360.323 341.015C360.06 341.07 359.747 341.098 359.386 341.098C358.871 341.098 358.422 340.993 358.038 340.785C357.657 340.574 357.361 340.264 357.149 339.857C356.938 339.451 356.832 338.952 356.832 338.363C356.832 337.787 356.928 337.289 357.12 336.869C357.315 336.446 357.589 336.12 357.94 335.893C358.295 335.665 358.712 335.551 359.19 335.551ZM359.181 336.215C358.748 336.215 358.403 336.356 358.146 336.64C357.888 336.923 357.735 337.318 357.687 337.826H360.519C360.515 337.507 360.465 337.227 360.367 336.986C360.273 336.742 360.128 336.553 359.933 336.42C359.737 336.283 359.487 336.215 359.181 336.215ZM365.177 335.551C365.284 335.551 365.396 335.557 365.514 335.57C365.631 335.58 365.735 335.595 365.826 335.614L365.724 336.366C365.636 336.343 365.538 336.326 365.431 336.312C365.323 336.299 365.222 336.293 365.128 336.293C364.913 336.293 364.71 336.337 364.518 336.425C364.329 336.509 364.163 336.633 364.02 336.796C363.876 336.955 363.764 337.149 363.683 337.377C363.601 337.602 363.561 337.852 363.561 338.129V341H362.745V335.648H363.419L363.507 336.635H363.541C363.652 336.436 363.785 336.256 363.941 336.093C364.098 335.927 364.278 335.795 364.483 335.697C364.692 335.6 364.923 335.551 365.177 335.551ZM372.647 335.551C373.237 335.551 373.681 335.705 373.98 336.015C374.28 336.321 374.43 336.814 374.43 337.494V341H373.629V337.533C373.629 337.1 373.535 336.776 373.346 336.562C373.16 336.343 372.883 336.234 372.516 336.234C371.998 336.234 371.622 336.384 371.388 336.684C371.153 336.983 371.036 337.424 371.036 338.007V341H370.23V337.533C370.23 337.243 370.188 337.003 370.104 336.811C370.022 336.618 369.898 336.475 369.732 336.381C369.57 336.283 369.363 336.234 369.112 336.234C368.757 336.234 368.473 336.308 368.258 336.454C368.043 336.601 367.887 336.819 367.789 337.108C367.695 337.395 367.647 337.748 367.647 338.168V341H366.837V335.648H367.491L367.613 336.405H367.657C367.765 336.22 367.9 336.063 368.062 335.937C368.225 335.81 368.408 335.714 368.609 335.648C368.811 335.583 369.026 335.551 369.254 335.551C369.661 335.551 370.001 335.627 370.274 335.78C370.551 335.93 370.751 336.16 370.875 336.469H370.919C371.095 336.16 371.336 335.93 371.642 335.78C371.948 335.627 372.283 335.551 372.647 335.551ZM378.097 335.561C378.735 335.561 379.208 335.704 379.518 335.99C379.827 336.277 379.981 336.734 379.981 337.362V341H379.391L379.234 340.209H379.195C379.046 340.404 378.889 340.569 378.727 340.702C378.564 340.832 378.375 340.932 378.16 341C377.949 341.065 377.688 341.098 377.379 341.098C377.053 341.098 376.764 341.041 376.51 340.927C376.259 340.813 376.061 340.64 375.914 340.409C375.771 340.178 375.699 339.885 375.699 339.53C375.699 338.996 375.911 338.586 376.334 338.3C376.757 338.013 377.402 337.857 378.268 337.831L379.19 337.792V337.465C379.19 337.003 379.091 336.679 378.893 336.493C378.694 336.308 378.414 336.215 378.053 336.215C377.773 336.215 377.506 336.256 377.252 336.337C376.998 336.418 376.757 336.514 376.529 336.625L376.28 336.01C376.521 335.886 376.798 335.78 377.11 335.692C377.423 335.604 377.752 335.561 378.097 335.561ZM379.181 338.363L378.365 338.397C377.698 338.424 377.228 338.533 376.954 338.725C376.681 338.917 376.544 339.188 376.544 339.54C376.544 339.846 376.637 340.072 376.822 340.219C377.008 340.365 377.254 340.438 377.56 340.438C378.035 340.438 378.424 340.307 378.727 340.043C379.029 339.779 379.181 339.384 379.181 338.856V338.363ZM384.186 335.551C384.82 335.551 385.3 335.707 385.626 336.02C385.951 336.329 386.114 336.827 386.114 337.514V341H385.313V337.567C385.313 337.121 385.211 336.788 385.006 336.566C384.804 336.345 384.493 336.234 384.073 336.234C383.481 336.234 383.064 336.402 382.823 336.737C382.582 337.073 382.462 337.559 382.462 338.197V341H381.651V335.648H382.306L382.428 336.42H382.472C382.586 336.231 382.73 336.073 382.906 335.946C383.082 335.816 383.279 335.718 383.497 335.653C383.715 335.585 383.945 335.551 384.186 335.551ZM386.939 335.648H387.809L388.99 338.754C389.059 338.936 389.122 339.112 389.181 339.281C389.239 339.447 389.291 339.607 389.337 339.76C389.382 339.913 389.418 340.061 389.444 340.204H389.479C389.524 340.041 389.589 339.828 389.674 339.564C389.758 339.298 389.85 339.026 389.947 338.749L391.065 335.648H391.939L389.61 341.786C389.487 342.115 389.342 342.401 389.176 342.646C389.013 342.89 388.814 343.077 388.58 343.207C388.346 343.34 388.062 343.407 387.73 343.407C387.577 343.407 387.442 343.397 387.325 343.378C387.208 343.362 387.107 343.342 387.022 343.319V342.67C387.094 342.686 387.18 342.701 387.281 342.714C387.385 342.727 387.493 342.733 387.604 342.733C387.805 342.733 387.979 342.694 388.126 342.616C388.276 342.541 388.404 342.431 388.512 342.284C388.619 342.138 388.712 341.964 388.79 341.762L389.083 341.01L386.939 335.648Z" fill="black"/>
<circle cx="270" cy="337" r="7" fill="#D7D0FF"/>
<path d="M285.951 341H281.977V333.861H285.951V334.594H282.807V336.903H285.771V337.626H282.807V340.268H285.951V341ZM289.945 335.551C290.58 335.551 291.06 335.707 291.386 336.02C291.711 336.329 291.874 336.827 291.874 337.514V341H291.073V337.567C291.073 337.121 290.971 336.788 290.766 336.566C290.564 336.345 290.253 336.234 289.833 336.234C289.241 336.234 288.824 336.402 288.583 336.737C288.342 337.073 288.222 337.559 288.222 338.197V341H287.411V335.648H288.065L288.188 336.42H288.231C288.345 336.231 288.49 336.073 288.666 335.946C288.842 335.816 289.039 335.718 289.257 335.653C289.475 335.585 289.704 335.551 289.945 335.551ZM295.038 343.402C294.335 343.402 293.793 343.271 293.412 343.007C293.031 342.746 292.841 342.38 292.841 341.908C292.841 341.573 292.947 341.286 293.158 341.049C293.373 340.811 293.669 340.653 294.047 340.575C293.907 340.51 293.786 340.412 293.686 340.282C293.588 340.152 293.539 340.002 293.539 339.833C293.539 339.638 293.593 339.467 293.7 339.32C293.811 339.171 293.979 339.027 294.203 338.891C293.923 338.777 293.695 338.585 293.52 338.314C293.347 338.041 293.261 337.724 293.261 337.362C293.261 336.978 293.34 336.651 293.5 336.381C293.66 336.107 293.891 335.899 294.193 335.756C294.496 335.613 294.862 335.541 295.292 335.541C295.386 335.541 295.481 335.546 295.575 335.556C295.673 335.562 295.766 335.574 295.854 335.59C295.941 335.603 296.018 335.619 296.083 335.639H297.919V336.161L296.933 336.283C297.03 336.41 297.112 336.563 297.177 336.742C297.242 336.921 297.274 337.12 297.274 337.338C297.274 337.872 297.094 338.297 296.732 338.612C296.371 338.925 295.875 339.081 295.243 339.081C295.093 339.081 294.94 339.068 294.784 339.042C294.625 339.13 294.503 339.228 294.418 339.335C294.337 339.442 294.296 339.566 294.296 339.706C294.296 339.81 294.327 339.893 294.389 339.955C294.454 340.017 294.547 340.062 294.667 340.092C294.787 340.118 294.932 340.131 295.102 340.131H296.044C296.627 340.131 297.073 340.253 297.382 340.497C297.694 340.741 297.851 341.098 297.851 341.566C297.851 342.159 297.61 342.613 297.128 342.929C296.646 343.244 295.95 343.402 295.038 343.402ZM295.062 342.768C295.505 342.768 295.871 342.722 296.161 342.631C296.454 342.543 296.672 342.414 296.815 342.245C296.962 342.079 297.035 341.881 297.035 341.649C297.035 341.435 296.986 341.272 296.889 341.161C296.791 341.054 296.648 340.982 296.459 340.946C296.27 340.907 296.039 340.888 295.766 340.888H294.838C294.597 340.888 294.387 340.925 294.208 341C294.029 341.075 293.891 341.186 293.793 341.332C293.699 341.479 293.651 341.661 293.651 341.879C293.651 342.169 293.773 342.388 294.018 342.538C294.262 342.691 294.61 342.768 295.062 342.768ZM295.272 338.49C295.66 338.49 295.951 338.393 296.146 338.197C296.342 338.002 296.439 337.717 296.439 337.343C296.439 336.942 296.34 336.643 296.142 336.444C295.943 336.243 295.65 336.142 295.263 336.142C294.892 336.142 294.605 336.246 294.403 336.454C294.205 336.659 294.105 336.96 294.105 337.357C294.105 337.722 294.206 338.002 294.408 338.197C294.61 338.393 294.898 338.49 295.272 338.49ZM299.789 341H298.974V333.402H299.789V341ZM303.505 335.561C304.143 335.561 304.617 335.704 304.926 335.99C305.235 336.277 305.39 336.734 305.39 337.362V341H304.799L304.643 340.209H304.604C304.454 340.404 304.298 340.569 304.135 340.702C303.972 340.832 303.783 340.932 303.568 341C303.357 341.065 303.096 341.098 302.787 341.098C302.462 341.098 302.172 341.041 301.918 340.927C301.667 340.813 301.469 340.64 301.322 340.409C301.179 340.178 301.107 339.885 301.107 339.53C301.107 338.996 301.319 338.586 301.742 338.3C302.165 338.013 302.81 337.857 303.676 337.831L304.599 337.792V337.465C304.599 337.003 304.499 336.679 304.301 336.493C304.102 336.308 303.822 336.215 303.461 336.215C303.181 336.215 302.914 336.256 302.66 336.337C302.406 336.418 302.165 336.514 301.938 336.625L301.688 336.01C301.929 335.886 302.206 335.78 302.519 335.692C302.831 335.604 303.16 335.561 303.505 335.561ZM304.589 338.363L303.773 338.397C303.106 338.424 302.636 338.533 302.362 338.725C302.089 338.917 301.952 339.188 301.952 339.54C301.952 339.846 302.045 340.072 302.23 340.219C302.416 340.365 302.662 340.438 302.968 340.438C303.443 340.438 303.832 340.307 304.135 340.043C304.438 339.779 304.589 339.384 304.589 338.856V338.363ZM309.594 335.551C310.229 335.551 310.709 335.707 311.034 336.02C311.36 336.329 311.522 336.827 311.522 337.514V341H310.722V337.567C310.722 337.121 310.619 336.788 310.414 336.566C310.212 336.345 309.901 336.234 309.481 336.234C308.889 336.234 308.472 336.402 308.231 336.737C307.991 337.073 307.87 337.559 307.87 338.197V341H307.06V335.648H307.714L307.836 336.42H307.88C307.994 336.231 308.139 336.073 308.314 335.946C308.49 335.816 308.687 335.718 308.905 335.653C309.123 335.585 309.353 335.551 309.594 335.551ZM315.097 341.098C314.42 341.098 313.882 340.867 313.485 340.404C313.091 339.942 312.895 339.255 312.895 338.344C312.895 337.423 313.096 336.728 313.5 336.259C313.904 335.787 314.441 335.551 315.111 335.551C315.395 335.551 315.642 335.588 315.854 335.663C316.065 335.738 316.247 335.839 316.4 335.966C316.553 336.09 316.682 336.231 316.786 336.391H316.845C316.832 336.29 316.819 336.151 316.806 335.976C316.793 335.8 316.786 335.657 316.786 335.546V333.402H317.597V341H316.942L316.82 340.238H316.786C316.685 340.398 316.557 340.543 316.4 340.673C316.247 340.803 316.063 340.907 315.849 340.985C315.637 341.06 315.386 341.098 315.097 341.098ZM315.224 340.424C315.797 340.424 316.202 340.261 316.439 339.936C316.677 339.61 316.796 339.127 316.796 338.485V338.339C316.796 337.659 316.682 337.136 316.454 336.771C316.229 336.407 315.819 336.225 315.224 336.225C314.726 336.225 314.353 336.417 314.105 336.801C313.858 337.182 313.734 337.702 313.734 338.363C313.734 339.021 313.856 339.529 314.101 339.887C314.348 340.245 314.722 340.424 315.224 340.424Z" fill="black"/>
<circle cx="205" cy="337" r="7" fill="#D0FFE3"/>
<path d="M220.028 334.491C219.634 334.491 219.28 334.56 218.964 334.696C218.651 334.83 218.384 335.025 218.163 335.282C217.945 335.536 217.777 335.844 217.66 336.205C217.543 336.566 217.484 336.973 217.484 337.426C217.484 338.025 217.577 338.546 217.763 338.988C217.951 339.428 218.231 339.768 218.603 340.009C218.977 340.25 219.444 340.37 220.004 340.37C220.323 340.37 220.622 340.344 220.902 340.292C221.186 340.237 221.461 340.168 221.728 340.087V340.81C221.467 340.907 221.194 340.979 220.907 341.024C220.621 341.073 220.281 341.098 219.887 341.098C219.161 341.098 218.554 340.948 218.065 340.648C217.58 340.346 217.216 339.919 216.972 339.369C216.731 338.819 216.61 338.17 216.61 337.421C216.61 336.881 216.685 336.387 216.835 335.941C216.988 335.492 217.209 335.105 217.499 334.779C217.792 334.454 218.15 334.203 218.573 334.027C219 333.848 219.488 333.759 220.038 333.759C220.399 333.759 220.748 333.795 221.083 333.866C221.418 333.938 221.721 334.04 221.991 334.174L221.659 334.877C221.431 334.773 221.181 334.683 220.907 334.608C220.637 334.53 220.344 334.491 220.028 334.491ZM225.155 335.561C225.793 335.561 226.267 335.704 226.576 335.99C226.885 336.277 227.04 336.734 227.04 337.362V341H226.449L226.293 340.209H226.254C226.104 340.404 225.948 340.569 225.785 340.702C225.622 340.832 225.434 340.932 225.219 341C225.007 341.065 224.747 341.098 224.438 341.098C224.112 341.098 223.822 341.041 223.568 340.927C223.318 340.813 223.119 340.64 222.973 340.409C222.829 340.178 222.758 339.885 222.758 339.53C222.758 338.996 222.969 338.586 223.393 338.3C223.816 338.013 224.46 337.857 225.326 337.831L226.249 337.792V337.465C226.249 337.003 226.15 336.679 225.951 336.493C225.753 336.308 225.473 336.215 225.111 336.215C224.831 336.215 224.564 336.256 224.311 336.337C224.057 336.418 223.816 336.514 223.588 336.625L223.339 336.01C223.58 335.886 223.856 335.78 224.169 335.692C224.481 335.604 224.81 335.561 225.155 335.561ZM226.239 338.363L225.424 338.397C224.757 338.424 224.286 338.533 224.013 338.725C223.739 338.917 223.603 339.188 223.603 339.54C223.603 339.846 223.695 340.072 223.881 340.219C224.066 340.365 224.312 340.438 224.618 340.438C225.093 340.438 225.482 340.307 225.785 340.043C226.088 339.779 226.239 339.384 226.239 338.856V338.363ZM231.244 335.551C231.879 335.551 232.359 335.707 232.685 336.02C233.01 336.329 233.173 336.827 233.173 337.514V341H232.372V337.567C232.372 337.121 232.27 336.788 232.064 336.566C231.863 336.345 231.552 336.234 231.132 336.234C230.539 336.234 230.123 336.402 229.882 336.737C229.641 337.073 229.521 337.559 229.521 338.197V341H228.71V335.648H229.364L229.486 336.42H229.53C229.644 336.231 229.789 336.073 229.965 335.946C230.141 335.816 230.338 335.718 230.556 335.653C230.774 335.585 231.003 335.551 231.244 335.551ZM236.845 335.561C237.483 335.561 237.956 335.704 238.266 335.99C238.575 336.277 238.729 336.734 238.729 337.362V341H238.139L237.982 340.209H237.943C237.794 340.404 237.637 340.569 237.475 340.702C237.312 340.832 237.123 340.932 236.908 341C236.697 341.065 236.436 341.098 236.127 341.098C235.801 341.098 235.512 341.041 235.258 340.927C235.007 340.813 234.809 340.64 234.662 340.409C234.519 340.178 234.447 339.885 234.447 339.53C234.447 338.996 234.659 338.586 235.082 338.3C235.505 338.013 236.15 337.857 237.016 337.831L237.938 337.792V337.465C237.938 337.003 237.839 336.679 237.641 336.493C237.442 336.308 237.162 336.215 236.801 336.215C236.521 336.215 236.254 336.256 236 336.337C235.746 336.418 235.505 336.514 235.277 336.625L235.028 336.01C235.269 335.886 235.546 335.78 235.858 335.692C236.171 335.604 236.5 335.561 236.845 335.561ZM237.929 338.363L237.113 338.397C236.446 338.424 235.976 338.533 235.702 338.725C235.429 338.917 235.292 339.188 235.292 339.54C235.292 339.846 235.385 340.072 235.57 340.219C235.756 340.365 236.002 340.438 236.308 340.438C236.783 340.438 237.172 340.307 237.475 340.043C237.777 339.779 237.929 339.384 237.929 338.856V338.363ZM242.304 341.098C241.627 341.098 241.09 340.867 240.692 340.404C240.299 339.942 240.102 339.255 240.102 338.344C240.102 337.423 240.303 336.728 240.707 336.259C241.111 335.787 241.648 335.551 242.318 335.551C242.602 335.551 242.849 335.588 243.061 335.663C243.272 335.738 243.454 335.839 243.607 335.966C243.76 336.09 243.889 336.231 243.993 336.391H244.052C244.039 336.29 244.026 336.151 244.013 335.976C244 335.8 243.993 335.657 243.993 335.546V333.402H244.804V341H244.149L244.027 340.238H243.993C243.892 340.398 243.764 340.543 243.607 340.673C243.454 340.803 243.271 340.907 243.056 340.985C242.844 341.06 242.593 341.098 242.304 341.098ZM242.431 340.424C243.004 340.424 243.409 340.261 243.646 339.936C243.884 339.61 244.003 339.127 244.003 338.485V338.339C244.003 337.659 243.889 337.136 243.661 336.771C243.437 336.407 243.026 336.225 242.431 336.225C241.933 336.225 241.56 336.417 241.312 336.801C241.065 337.182 240.941 337.702 240.941 338.363C240.941 339.021 241.063 339.529 241.308 339.887C241.555 340.245 241.929 340.424 242.431 340.424ZM248.524 335.561C249.162 335.561 249.636 335.704 249.945 335.99C250.255 336.277 250.409 336.734 250.409 337.362V341H249.818L249.662 340.209H249.623C249.473 340.404 249.317 340.569 249.154 340.702C248.992 340.832 248.803 340.932 248.588 341C248.376 341.065 248.116 341.098 247.807 341.098C247.481 341.098 247.191 341.041 246.938 340.927C246.687 340.813 246.488 340.64 246.342 340.409C246.199 340.178 246.127 339.885 246.127 339.53C246.127 338.996 246.339 338.586 246.762 338.3C247.185 338.013 247.829 337.857 248.695 337.831L249.618 337.792V337.465C249.618 337.003 249.519 336.679 249.32 336.493C249.122 336.308 248.842 336.215 248.48 336.215C248.201 336.215 247.934 336.256 247.68 336.337C247.426 336.418 247.185 336.514 246.957 336.625L246.708 336.01C246.949 335.886 247.226 335.78 247.538 335.692C247.851 335.604 248.179 335.561 248.524 335.561ZM249.608 338.363L248.793 338.397C248.126 338.424 247.655 338.533 247.382 338.725C247.108 338.917 246.972 339.188 246.972 339.54C246.972 339.846 247.064 340.072 247.25 340.219C247.436 340.365 247.681 340.438 247.987 340.438C248.463 340.438 248.852 340.307 249.154 340.043C249.457 339.779 249.608 339.384 249.608 338.856V338.363Z" fill="black"/>
<circle cx="107" cy="337" r="7" fill="#FFD0D0"/>
<path d="M124.377 333.861V338.48C124.377 338.985 124.274 339.434 124.069 339.828C123.868 340.222 123.562 340.533 123.151 340.761C122.741 340.985 122.227 341.098 121.608 341.098C120.726 341.098 120.054 340.858 119.592 340.38C119.133 339.901 118.903 339.262 118.903 338.461V333.861H119.738V338.485C119.738 339.091 119.898 339.558 120.217 339.887C120.539 340.215 121.019 340.38 121.657 340.38C122.093 340.38 122.45 340.302 122.727 340.146C123.007 339.986 123.213 339.765 123.347 339.481C123.483 339.195 123.552 338.865 123.552 338.49V333.861H124.377ZM128.684 335.551C129.318 335.551 129.799 335.707 130.124 336.02C130.45 336.329 130.612 336.827 130.612 337.514V341H129.812V337.567C129.812 337.121 129.709 336.788 129.504 336.566C129.302 336.345 128.991 336.234 128.571 336.234C127.979 336.234 127.562 336.402 127.321 336.737C127.08 337.073 126.96 337.559 126.96 338.197V341H126.149V335.648H126.804L126.926 336.42H126.97C127.084 336.231 127.229 336.073 127.404 335.946C127.58 335.816 127.777 335.718 127.995 335.653C128.213 335.585 128.443 335.551 128.684 335.551ZM133.093 335.648V341H132.282V335.648H133.093ZM132.697 333.646C132.831 333.646 132.945 333.69 133.039 333.778C133.137 333.863 133.186 333.996 133.186 334.179C133.186 334.358 133.137 334.491 133.039 334.579C132.945 334.667 132.831 334.711 132.697 334.711C132.557 334.711 132.44 334.667 132.346 334.579C132.255 334.491 132.209 334.358 132.209 334.179C132.209 333.996 132.255 333.863 132.346 333.778C132.44 333.69 132.557 333.646 132.697 333.646ZM136.54 340.434C136.674 340.434 136.81 340.422 136.95 340.399C137.09 340.377 137.204 340.349 137.292 340.316V340.946C137.198 340.989 137.066 341.024 136.896 341.054C136.73 341.083 136.568 341.098 136.408 341.098C136.125 341.098 135.868 341.049 135.637 340.951C135.406 340.85 135.22 340.681 135.08 340.443C134.943 340.206 134.875 339.877 134.875 339.457V336.283H134.113V335.888L134.88 335.57L135.202 334.408H135.69V335.648H137.258V336.283H135.69V339.433C135.69 339.768 135.767 340.019 135.92 340.185C136.076 340.351 136.283 340.434 136.54 340.434ZM140.437 335.551C140.892 335.551 141.283 335.652 141.608 335.854C141.934 336.055 142.183 336.339 142.355 336.703C142.528 337.064 142.614 337.488 142.614 337.973V338.476H138.918C138.928 339.104 139.084 339.582 139.387 339.911C139.689 340.24 140.116 340.404 140.666 340.404C141.005 340.404 141.304 340.373 141.564 340.312C141.825 340.25 142.095 340.159 142.375 340.038V340.751C142.105 340.871 141.836 340.959 141.569 341.015C141.306 341.07 140.993 341.098 140.632 341.098C140.118 341.098 139.668 340.993 139.284 340.785C138.903 340.574 138.607 340.264 138.396 339.857C138.184 339.451 138.078 338.952 138.078 338.363C138.078 337.787 138.174 337.289 138.366 336.869C138.562 336.446 138.835 336.12 139.187 335.893C139.541 335.665 139.958 335.551 140.437 335.551ZM140.427 336.215C139.994 336.215 139.649 336.356 139.392 336.64C139.134 336.923 138.981 337.318 138.933 337.826H141.765C141.761 337.507 141.711 337.227 141.613 336.986C141.519 336.742 141.374 336.553 141.179 336.42C140.983 336.283 140.733 336.215 140.427 336.215ZM145.896 341.098C145.218 341.098 144.681 340.867 144.284 340.404C143.89 339.942 143.693 339.255 143.693 338.344C143.693 337.423 143.895 336.728 144.299 336.259C144.702 335.787 145.24 335.551 145.91 335.551C146.193 335.551 146.441 335.588 146.652 335.663C146.864 335.738 147.046 335.839 147.199 335.966C147.352 336.09 147.481 336.231 147.585 336.391H147.644C147.631 336.29 147.618 336.151 147.604 335.976C147.591 335.8 147.585 335.657 147.585 335.546V333.402H148.396V341H147.741L147.619 340.238H147.585C147.484 340.398 147.355 340.543 147.199 340.673C147.046 340.803 146.862 340.907 146.647 340.985C146.436 341.06 146.185 341.098 145.896 341.098ZM146.022 340.424C146.595 340.424 147.001 340.261 147.238 339.936C147.476 339.61 147.595 339.127 147.595 338.485V338.339C147.595 337.659 147.481 337.136 147.253 336.771C147.028 336.407 146.618 336.225 146.022 336.225C145.524 336.225 145.152 336.417 144.904 336.801C144.657 337.182 144.533 337.702 144.533 338.363C144.533 339.021 144.655 339.529 144.899 339.887C145.147 340.245 145.521 340.424 146.022 340.424ZM156.174 339.535C156.174 339.877 156.088 340.165 155.915 340.399C155.746 340.631 155.502 340.805 155.183 340.922C154.867 341.039 154.489 341.098 154.05 341.098C153.675 341.098 153.352 341.068 153.078 341.01C152.805 340.951 152.565 340.868 152.36 340.761V340.014C152.578 340.121 152.839 340.219 153.142 340.307C153.444 340.395 153.754 340.438 154.069 340.438C154.532 340.438 154.867 340.364 155.075 340.214C155.284 340.064 155.388 339.861 155.388 339.604C155.388 339.457 155.345 339.328 155.261 339.218C155.179 339.104 155.041 338.995 154.846 338.891C154.65 338.783 154.38 338.666 154.035 338.539C153.693 338.409 153.397 338.28 153.146 338.153C152.899 338.023 152.707 337.865 152.57 337.68C152.437 337.494 152.37 337.253 152.37 336.957C152.37 336.505 152.552 336.158 152.917 335.917C153.285 335.673 153.767 335.551 154.362 335.551C154.685 335.551 154.986 335.583 155.266 335.648C155.549 335.71 155.812 335.795 156.057 335.902L155.783 336.552C155.562 336.457 155.326 336.378 155.075 336.312C154.825 336.247 154.569 336.215 154.309 336.215C153.934 336.215 153.646 336.277 153.444 336.4C153.246 336.524 153.146 336.693 153.146 336.908C153.146 337.074 153.192 337.211 153.283 337.318C153.378 337.426 153.527 337.527 153.732 337.621C153.938 337.715 154.208 337.826 154.543 337.953C154.878 338.077 155.168 338.205 155.412 338.339C155.656 338.469 155.843 338.629 155.974 338.817C156.107 339.003 156.174 339.242 156.174 339.535ZM159.206 340.434C159.34 340.434 159.476 340.422 159.616 340.399C159.756 340.377 159.87 340.349 159.958 340.316V340.946C159.864 340.989 159.732 341.024 159.562 341.054C159.396 341.083 159.234 341.098 159.074 341.098C158.791 341.098 158.534 341.049 158.303 340.951C158.072 340.85 157.886 340.681 157.746 340.443C157.609 340.206 157.541 339.877 157.541 339.457V336.283H156.779V335.888L157.546 335.57L157.868 334.408H158.356V335.648H159.924V336.283H158.356V339.433C158.356 339.768 158.433 340.019 158.586 340.185C158.742 340.351 158.949 340.434 159.206 340.434ZM163.044 335.561C163.682 335.561 164.156 335.704 164.465 335.99C164.774 336.277 164.929 336.734 164.929 337.362V341H164.338L164.182 340.209H164.143C163.993 340.404 163.837 340.569 163.674 340.702C163.511 340.832 163.322 340.932 163.107 341C162.896 341.065 162.635 341.098 162.326 341.098C162.001 341.098 161.711 341.041 161.457 340.927C161.206 340.813 161.008 340.64 160.861 340.409C160.718 340.178 160.646 339.885 160.646 339.53C160.646 338.996 160.858 338.586 161.281 338.3C161.704 338.013 162.349 337.857 163.215 337.831L164.138 337.792V337.465C164.138 337.003 164.038 336.679 163.84 336.493C163.641 336.308 163.361 336.215 163 336.215C162.72 336.215 162.453 336.256 162.199 336.337C161.945 336.418 161.704 336.514 161.477 336.625L161.228 336.01C161.468 335.886 161.745 335.78 162.058 335.692C162.37 335.604 162.699 335.561 163.044 335.561ZM164.128 338.363L163.312 338.397C162.645 338.424 162.175 338.533 161.901 338.725C161.628 338.917 161.491 339.188 161.491 339.54C161.491 339.846 161.584 340.072 161.77 340.219C161.955 340.365 162.201 340.438 162.507 340.438C162.982 340.438 163.371 340.307 163.674 340.043C163.977 339.779 164.128 339.384 164.128 338.856V338.363ZM168.327 340.434C168.461 340.434 168.597 340.422 168.737 340.399C168.877 340.377 168.991 340.349 169.079 340.316V340.946C168.985 340.989 168.853 341.024 168.684 341.054C168.518 341.083 168.355 341.098 168.195 341.098C167.912 341.098 167.655 341.049 167.424 340.951C167.193 340.85 167.007 340.681 166.867 340.443C166.73 340.206 166.662 339.877 166.662 339.457V336.283H165.9V335.888L166.667 335.57L166.989 334.408H167.478V335.648H169.045V336.283H167.478V339.433C167.478 339.768 167.554 340.019 167.707 340.185C167.863 340.351 168.07 340.434 168.327 340.434ZM172.224 335.551C172.679 335.551 173.07 335.652 173.396 335.854C173.721 336.055 173.97 336.339 174.143 336.703C174.315 337.064 174.401 337.488 174.401 337.973V338.476H170.705C170.715 339.104 170.871 339.582 171.174 339.911C171.477 340.24 171.903 340.404 172.453 340.404C172.792 340.404 173.091 340.373 173.352 340.312C173.612 340.25 173.882 340.159 174.162 340.038V340.751C173.892 340.871 173.623 340.959 173.356 341.015C173.093 341.07 172.78 341.098 172.419 341.098C171.905 341.098 171.455 340.993 171.071 340.785C170.69 340.574 170.394 340.264 170.183 339.857C169.971 339.451 169.865 338.952 169.865 338.363C169.865 337.787 169.961 337.289 170.153 336.869C170.349 336.446 170.622 336.12 170.974 335.893C171.328 335.665 171.745 335.551 172.224 335.551ZM172.214 336.215C171.781 336.215 171.436 336.356 171.179 336.64C170.922 336.923 170.769 337.318 170.72 337.826H173.552C173.549 337.507 173.498 337.227 173.4 336.986C173.306 336.742 173.161 336.553 172.966 336.42C172.771 336.283 172.52 336.215 172.214 336.215ZM179.24 339.535C179.24 339.877 179.154 340.165 178.981 340.399C178.812 340.631 178.568 340.805 178.249 340.922C177.933 341.039 177.556 341.098 177.116 341.098C176.742 341.098 176.418 341.068 176.145 341.01C175.871 340.951 175.632 340.868 175.427 340.761V340.014C175.645 340.121 175.905 340.219 176.208 340.307C176.511 340.395 176.82 340.438 177.136 340.438C177.598 340.438 177.933 340.364 178.142 340.214C178.35 340.064 178.454 339.861 178.454 339.604C178.454 339.457 178.412 339.328 178.327 339.218C178.246 339.104 178.107 338.995 177.912 338.891C177.717 338.783 177.447 338.666 177.102 338.539C176.76 338.409 176.464 338.28 176.213 338.153C175.965 338.023 175.773 337.865 175.637 337.68C175.503 337.494 175.437 337.253 175.437 336.957C175.437 336.505 175.619 336.158 175.983 335.917C176.351 335.673 176.833 335.551 177.429 335.551C177.751 335.551 178.052 335.583 178.332 335.648C178.615 335.71 178.879 335.795 179.123 335.902L178.85 336.552C178.628 336.457 178.392 336.378 178.142 336.312C177.891 336.247 177.635 336.215 177.375 336.215C177.001 336.215 176.713 336.277 176.511 336.4C176.312 336.524 176.213 336.693 176.213 336.908C176.213 337.074 176.258 337.211 176.35 337.318C176.444 337.426 176.594 337.527 176.799 337.621C177.004 337.715 177.274 337.826 177.609 337.953C177.945 338.077 178.234 338.205 178.479 338.339C178.723 338.469 178.91 338.629 179.04 338.817C179.174 339.003 179.24 339.242 179.24 339.535Z" fill="black"/>
</svg>
